<svg width="142" height="380" viewBox="0 0 142 380" fill="none" xmlns="http://www.w3.org/2000/svg">
<path fill-rule="evenodd" clip-rule="evenodd" d="M65.8504 11.1517C62.9712 12.9108 57.3551 19.2166 57.3551 20.691C57.3551 21.0196 58.3842 21.4359 59.641 21.6144C61.7298 21.9124 61.9218 22.4685 61.8639 28.0631C61.8293 31.4302 61.2309 36.7963 60.535 39.9879L59.2691 45.7907L49.4225 49.0589C31.9736 54.8514 25.8607 58.7482 25.8607 64.0795C25.8607 67.0732 36.5789 71.574 43.7109 71.574C51.5875 71.574 55.6747 69.0415 57.9453 62.7551C58.5427 61.1011 58.8353 61.4888 59.4845 64.7958C60.7788 71.3883 60.5289 76.2574 58.8069 77.9879C57.7554 79.043 55.3648 79.5909 51.8131 79.5909C46.8055 79.5909 46.1512 79.8858 42.7417 83.6754C40.7209 85.9212 39.068 88.3833 39.068 89.1455C39.068 91.023 46.8207 105.076 49.3453 107.776C50.4598 108.967 53.2303 110.784 55.504 111.814L59.6369 113.686L61.5438 111.321C64.2412 107.975 63.9151 106.347 61.0836 109.018L58.7164 111.251L54.4464 108.144C50.0951 104.979 46.6134 100.298 45.5406 96.1717C44.3875 91.7382 46.0079 88.9139 51.5296 85.7334C56.1298 83.0846 57.8712 82.6703 64.4373 82.6612L72.0274 82.652L65.7072 89.0567C58.113 96.7522 57.6477 99.2725 62.956 103.955C68.1699 108.552 71.9969 110.252 79.0314 111.094L85.2937 111.845L81.4839 114.185C76.1471 117.463 76.7414 117.686 83.0078 114.756C87.1163 112.835 90.0402 112.26 95.7386 112.252C101.505 112.244 103.271 111.89 103.746 110.646C104.768 107.972 102.459 104.499 97.6049 101.407C95.0651 99.7908 92.9712 98.1756 92.9509 97.8195C92.9296 97.4634 94.171 96.3706 95.7072 95.3921C104.973 89.4883 106.454 84.408 100.796 77.9359C96.1024 72.5668 90.8601 70.4516 84.0085 71.1618L78.4767 71.7362L78.8373 62.4255C79.2864 50.8241 80.2353 49.6517 91.0968 47.2845C99.3524 45.4856 101.382 45.8213 113.845 51.0527C115.578 51.7802 117.756 52.0822 118.684 51.7251C120.148 51.1608 120.201 50.6782 119.088 48.0834C116.056 41.0205 103.592 31.4374 91.7439 27.058C88.1058 25.7142 86.1816 24.101 83.3878 20.0553C77.3368 11.2936 70.9383 8.04476 65.8504 11.1517ZM84.7877 32.8883C81.9695 37.5299 82.0731 40.2185 85.0397 39.4196C86.2964 39.0819 89.1543 38.7911 91.3894 38.7747C93.6245 38.7584 96.1369 38.3115 96.972 37.7809C98.2765 36.9534 98.2044 36.5912 96.464 35.2229C95.3495 34.3464 92.7223 32.7118 90.6254 31.5894L86.8135 29.5507L84.7877 32.8883ZM68.6728 139.591C67.5572 141.164 66.4976 144.263 66.3178 146.478C66.013 150.227 65.7438 150.541 62.4145 151.016C59.0639 151.494 53.6123 154.703 47.3551 159.882C45.122 161.729 44.8538 162.435 45.8027 163.963C46.6754 165.37 46.6124 166.473 45.5365 168.589L44.1234 171.369L47.5898 169.315C50.6691 167.489 51.5814 167.393 55.7743 168.453C58.369 169.11 62.4805 169.374 64.9097 169.039C68.815 168.501 69.3931 168.681 69.8899 170.589C70.2881 172.122 69.6745 173.369 67.7736 174.891C63.4833 178.326 55.0062 182.743 53.6824 182.232C53.0139 181.975 51.6231 182.721 50.5929 183.89C48.8079 185.916 37.2139 191.83 35.0266 191.83C34.4556 191.83 33.9679 190.567 33.9425 189.024C33.8988 186.343 33.6479 186.488 28.3548 192.25C22.4166 198.713 21.745 200.747 24.671 203.406C27.5014 205.979 30.6945 205.449 36.0201 201.523C38.684 199.559 41.1456 197.952 41.49 197.952C42.5862 197.952 42.1616 209.027 41.0389 209.724C40.4456 210.092 38.5824 209.819 36.8959 209.118C34.0522 207.934 33.6134 208.062 30.8154 210.871C28.0947 213.604 27.9098 214.193 28.9268 216.895C29.5465 218.542 31.2178 221.115 32.6391 222.612L35.2247 225.334L32.3211 226.857C28.3457 228.942 23.4569 234.275 24.2859 235.622C24.6588 236.228 26.9477 236.725 29.3718 236.725C32.8514 236.725 36.7059 235.201 47.6741 229.488C55.3161 225.507 61.8212 222.504 62.13 222.815C62.8991 223.587 69.2813 220.835 73.6103 217.866C77.1224 215.456 85.0001 212.873 81.7379 215.2C80.5035 216.081 80.7311 216.29 82.9336 216.303C85.1575 216.315 86.2334 217.338 88.8424 221.917C92.45 228.25 106.076 243.265 110.123 245.367C111.593 246.13 114.488 247.073 116.558 247.464C121.979 248.484 122.288 246.423 118.303 235.873C114.232 225.098 104.955 204.904 104.355 205.508C104.115 205.748 104.914 208.165 106.131 210.877C108.641 216.474 109.737 227.154 108.016 229.237C107.396 229.989 105.815 230.603 104.504 230.603C102.685 230.603 100.562 228.487 95.5477 221.675C86.6429 209.578 83.8988 203.806 82.1138 193.418C79.8523 180.256 80.2373 178.532 86.0556 175.74C88.7093 174.466 90.8814 173.054 90.8814 172.601C90.8814 172.149 89.776 170.735 88.4248 169.461C86.5321 167.675 85.2784 167.294 82.9661 167.805C79.1462 168.647 78.0723 166.399 80.2627 162.145C81.1202 160.48 81.4686 158.558 81.0379 157.873C80.6061 157.188 80.2068 154.491 80.1489 151.88C80.0717 148.377 79.1736 145.769 76.7211 141.931C74.8934 139.071 72.7914 136.731 72.0498 136.731C71.3081 136.731 69.7883 138.017 68.6728 139.591ZM93.2069 147.285C91.4117 148.495 89.9264 150.103 89.9051 150.859C89.8827 151.614 88.9013 153.591 87.7228 155.253C86.5443 156.915 85.7437 158.422 85.9449 158.603C87.5968 160.085 102.899 167.341 104.372 167.341C108.429 167.341 110.184 165.413 110.184 160.955C110.184 157.054 109.647 156.168 104.017 150.788C100.624 147.545 97.5389 144.936 97.1589 144.989C96.78 145.042 95.0011 146.076 93.2069 147.285ZM64.7207 186.835C60.2597 189.446 59.387 190.434 59.387 192.867C59.387 194.468 58.9166 197.02 58.3426 198.538C56.841 202.503 57.7645 202.708 62.6146 199.484C66.5413 196.874 67.1123 196.757 69.454 198.077C70.8601 198.869 73.5656 201.576 75.4664 204.091C79.1411 208.953 82.4876 210.859 81.4412 207.493C77.5298 194.913 72.8757 183.683 71.5784 183.697C70.7402 183.705 67.6548 185.117 64.7207 186.835ZM58.4086 208.94C56.7242 210.31 56.268 211.62 56.5179 214.369L56.8471 217.993L65.2287 214.975C69.838 213.315 73.6103 211.67 73.6103 211.317C73.6103 210.536 64.294 207.135 62.1575 207.135C61.3163 207.135 59.6288 207.947 58.4086 208.94ZM39.068 215.146C39.068 218.387 41.2756 223.572 42.4856 223.173C44.0908 222.644 44.5013 217.868 43.1582 215.348C41.7704 212.742 39.068 212.608 39.068 215.146ZM81.0043 271.46C73.0566 275.797 71.3417 276.388 69.6968 275.356C68.0916 274.35 66.9954 274.59 63.3177 276.755C60.8753 278.192 58.0154 280.325 56.9619 281.493C55.0783 283.583 55.0915 283.675 57.7777 287.21C60.6376 290.978 61.2594 291.193 66.3107 290.179C69.7232 289.493 72.5943 284.942 72.5943 280.218C72.5943 278.341 73.4508 277.147 75.5914 276.035C79.0212 274.254 85.8017 273.942 85.8017 275.566C85.8017 280.378 75.8514 290.209 66.6876 294.451C62.6014 296.342 57.2068 299.28 54.6994 300.979C52.193 302.678 49.321 304.069 48.3182 304.069C45.9693 304.069 42.4511 307.897 43.7149 309.078C44.2554 309.584 49.7913 307.61 56.7364 304.436C63.3807 301.398 69.0354 299.134 69.3037 299.404C69.5719 299.673 68.3263 301.751 66.5362 304.022C64.7451 306.292 63.6235 308.15 64.0441 308.15C64.4647 308.15 69.5363 304.924 75.314 300.98C81.0917 297.037 87.1559 293.542 88.7896 293.214C91.7348 292.622 108.525 296.387 110.849 298.16C112.334 299.293 116.843 298.193 118.39 296.321C119.97 294.409 117.801 291.119 112.551 287.465C108.966 284.971 108.259 284.819 105.355 285.92C101.419 287.411 99.8289 286.237 102.88 284.09C106.476 281.561 105.724 277.706 100.454 271.655C97.0035 267.693 95.1037 266.32 93.088 266.332C91.5956 266.34 86.1572 268.648 81.0043 271.46ZM32.2103 281.196C29.0517 283.696 28.9349 284.04 29.5211 289.093C29.9468 292.767 29.4825 297.118 27.9972 303.384C24.9951 316.045 25.0835 316.629 30.9404 322.849C35.7651 327.974 36.9152 330.751 35.2429 333.239C34.0888 334.954 30.152 335.622 26.8339 334.667C23.5291 333.715 21.4464 335.047 20.2323 338.888C19.2062 342.137 21.5632 345.549 27.6284 349.592C43.4518 360.141 59.4703 364.601 98.8668 369.428C110.659 370.873 117.296 369.553 117.296 365.762C117.296 363.539 108.156 354.066 106.011 354.066C105.512 354.066 105.051 351.655 104.985 348.709C104.919 345.763 104.573 341.987 104.217 340.319C103.861 338.649 103.901 332.451 104.305 326.544C104.744 320.129 104.634 314.283 104.032 312.031C102.217 305.243 91.7317 298.783 85.2012 300.43C81.3213 301.408 69.5465 313.611 69.5465 316.654C69.5465 317.955 68.4096 320.091 67.0188 321.402C65.1383 323.177 64.7705 324.124 65.5792 325.102C66.3899 326.085 65.7275 327.652 62.9702 331.28L59.2742 336.141L63.1155 337.478C65.2287 338.213 67.3236 339.181 67.7706 339.63C68.2186 340.08 67.3774 342.618 65.9012 345.27C64.4251 347.921 63.4813 350.355 63.8033 350.678C64.1254 351.002 68.5874 351.564 73.72 351.929C82.0894 352.523 83.2191 352.846 84.68 355.059C85.5761 356.416 87.0564 358.454 87.9687 359.586C89.7628 361.815 89.1502 361.968 97.8986 357.109C101.592 355.058 105.105 355.802 105.105 358.633C105.105 360.616 104.318 360.963 97.2148 362.111C92.6837 362.844 88.115 362.737 80.3714 361.717C63.2293 359.457 54.1457 356.517 41.9198 349.273C35.945 345.733 30.8073 342.43 30.5015 341.934C29.5343 340.363 32.4846 338.785 41.0979 336.27C45.7011 334.926 49.9285 333.363 50.4923 332.797C52.5618 330.718 49.9803 326.193 41.9005 317.74C34.3652 309.858 33.7099 308.85 34.5694 306.46C35.6361 303.491 40.5625 300.491 46.9416 298.927C52.3485 297.601 52.6086 295.241 48.1018 288.406C45.5853 284.592 38.0642 278.514 35.9307 278.571C35.7001 278.577 34.0258 279.759 32.2103 281.196ZM60.0077 311.754C57.1529 314.621 55.3151 319.775 55.3913 324.698L55.4593 329.067L56.7851 324.806C57.5156 322.463 59.1188 318.91 60.3501 316.909C61.5804 314.909 62.4389 312.497 62.257 311.55C61.9563 309.981 61.7541 309.999 60.0077 311.754ZM79.1157 311.276C76.0496 312.182 71.2827 316.313 73.3045 316.313C74.6872 316.313 79.706 321.053 79.706 322.361C79.706 323.93 74.1152 326.516 70.7219 326.516C68.8861 326.516 67.4851 327.163 67.0909 328.193C66.1867 330.561 66.9619 330.959 70.2444 329.812C72.4948 329.026 73.8703 329.236 76.716 330.803C80.474 332.872 83.1957 336.197 82.3098 337.636C82.0284 338.094 79.3839 338.757 76.4336 339.108C73.1287 339.5 70.5827 340.414 69.8005 341.488C67.8061 344.227 68.2948 345.178 71.3244 344.449C72.8615 344.08 76.3188 343.505 79.009 343.174C85.6808 342.35 87.2402 339.921 86.2273 331.929C85.8138 328.671 85.4359 322.57 85.3851 318.37C85.2845 310 84.9025 309.567 79.1157 311.276ZM54.8284 335.901C54.4352 337.414 54.6283 340.217 55.2561 342.128C56.5748 346.142 60.8723 350.677 61.8507 349.088C62.8168 347.517 61.4016 342.609 59.3148 340.29C58.304 339.168 57.0422 337.102 56.5098 335.699L55.5416 333.149L54.8284 335.901Z" fill="#242324"/>
</svg>
