<svg width="256" height="256" viewBox="0 0 256 256" fill="none" xmlns="http://www.w3.org/2000/svg">
<path d="M0 128C0 57.31 57.31 0 128 0C198.689 0 256 57.31 256 128C256 198.689 198.689 256 128 256C57.31 256 0 198.689 0 128Z" fill="black"/>
<path d="M237.51 157.32C234.75 122.54 226.141 68.6199 171.651 45.2299C159.791 168.7 28.4515 91.4999 99.1415 18.9399C70.4005 38.7199 28.0105 73.1399 35.0005 132.02C147.859 80.5499 146.189 232.93 48.0005 208C79.5005 223 130.5 242.5 178 207C77.0005 135 210.01 59.8199 237.51 157.32Z" fill="#6262CE"/>
</svg>
