<svg width="142" height="380" viewBox="0 0 142 380" fill="none" xmlns="http://www.w3.org/2000/svg">
<g clip-path="url(#clip0_62_25)">
<path fill-rule="evenodd" clip-rule="evenodd" d="M58.1428 17.5958C59.6553 20.1775 61.4351 25.2188 62.0973 28.7971C63.4107 35.9042 63.5735 85.413 62.2986 89.8999C61.6111 92.321 60.9324 92.64 56.6336 92.5707C53.6999 92.5234 49.1965 91.2705 45.3542 89.4324C41.8375 87.7505 38.7421 86.5911 38.4759 86.8562C37.5233 87.8099 64.4106 111.86 67.2167 112.565C69.1802 113.058 70.6641 112.708 71.9181 111.457C73.512 109.865 73.8387 105.382 74.4327 76.9386C74.8089 58.9602 75.5019 39.6486 75.9738 34.0232L76.8318 23.7976L73.0907 19.8673C68.793 15.3529 63.7726 12.8999 58.8303 12.8999H55.3906L58.1428 17.5958ZM88.5996 62.5198C88.5996 63.3635 90.7028 65.1708 93.2746 66.537C100.81 70.5399 104.469 73.8894 103.648 76.03C103.25 77.0651 100.713 78.8911 98.0079 80.0868C92.0096 82.7411 90.441 84.665 95.446 83.2295C100.202 81.8655 106.346 81.9282 112.196 83.4011C125.18 86.6703 124.674 73.5055 111.503 65.3622C107.359 62.8003 104.72 62.0908 97.4986 61.5958C90.3288 61.1041 88.5996 61.2834 88.5996 62.5198ZM32.4699 65.3677C28.2624 68.2552 22.6348 74.6253 20.3072 79.1309C17.4076 84.7464 17.489 91.6423 20.4733 93.2395C23.418 94.8158 26.4056 92.9172 32.1102 85.842C37.7895 78.7987 39.7211 76.8814 46.6236 71.4353C53.7659 65.7989 52.249 65.4348 43.3511 70.6499C39.7376 72.7674 36.2495 74.4999 35.5994 74.4999C34.8162 74.4999 34.6622 72.642 35.1462 68.9999C35.5466 65.9749 35.7215 63.4999 35.5323 63.4999C35.3431 63.4999 33.9648 64.3403 32.4699 65.3677ZM76.4996 127.888C76.4996 128.213 77.3653 129.798 78.4246 131.413C79.9382 133.723 80.431 137.331 80.7324 148.313L81.1152 162.278L77.6513 163.039C72.5 164.17 60.7828 169.056 58.9392 170.84C57.5444 172.191 58.5509 172.4 66.4302 172.4H75.5316L69.9722 180.375C62.8948 190.527 59.6278 194.152 53.0399 199.162C45.5522 204.857 44.5996 204.575 44.5996 196.665C44.5996 193.07 45.0473 189.853 45.5951 189.515C46.6324 188.874 53.3996 177.317 53.3996 176.186C53.3996 175.831 51.5615 177.054 49.3153 178.906C47.0691 180.758 44.8383 181.879 44.3576 181.398C43.8769 180.917 43.801 178.207 44.1893 175.375C44.868 170.427 45.1243 170.121 50.797 167.524C54.1597 165.985 56.6996 164.103 56.6996 163.15C56.6996 161.082 53.3578 159.2 49.6871 159.2C48.1702 159.2 46.7105 158.828 46.4421 158.375C46.1748 157.922 46.4036 154.332 46.9514 150.4C47.5003 146.467 47.6565 141.915 47.299 140.281C46.4905 136.588 39.6958 129.002 38.0876 129.996C37.3451 130.455 36.8996 135.608 36.8996 143.727C36.8996 162.868 36.9238 162.805 28.2558 166.67C24.2375 168.463 17.9796 170.825 14.3496 171.919C5.69698 174.53 5.09748 175.198 9.97048 176.807C14.2253 178.211 22.3642 177.673 28.9983 175.549C31.0047 174.907 32.8923 174.626 33.1915 174.926C34.2057 175.94 23.9328 194.906 18.8486 201.407C13.2364 208.584 12.8008 210.512 15.9644 214.159C18.9465 217.598 21.9242 216.59 28.6496 209.868C31.6746 206.844 34.594 204.355 35.1374 204.335C35.6995 204.315 35.815 208.327 35.4047 213.666C34.6116 223.979 35.5928 227.678 40.6143 233.306C46.2562 239.629 48.3132 234.733 46.7985 218.587C46.2661 212.916 46.078 207.877 46.3805 207.389C46.6819 206.899 48.6575 206.5 50.7695 206.5C55.2993 206.5 59.9303 204.318 66.2344 199.212C71.1173 195.259 74.2688 194.68 78.6996 196.926C81.3737 198.281 81.4386 198.589 81.0514 208.161C80.8336 213.573 80.2044 219.186 79.6533 220.634C78.792 222.901 78.1606 223.167 75.1015 222.556C73.1479 222.165 68.8271 220.001 65.4996 217.747C56.9504 211.957 56.7007 212.027 62.226 218.671C69.7181 227.68 78.9878 236.517 83.4901 238.941C91.1648 243.074 93.4792 238.401 91.882 221.99C91.3177 216.193 90.8436 209.045 90.8282 206.106C90.8007 200.922 90.8843 200.782 93.6035 201.465C97.4447 202.429 114.953 210.205 114.979 210.958C114.991 211.293 112.896 212.596 110.325 213.855L105.65 216.144L113.9 216.409C135.622 217.106 135.324 217.129 135.672 214.698C136.309 210.248 130.451 206.098 115.69 200.542C111.729 199.052 104.508 196.758 99.6436 195.445L90.7996 193.059V180.529V168H102.384C112.094 168 114.08 167.708 114.66 166.2C115.826 163.16 113.439 160.989 105.534 157.901C96.7737 154.479 94.3097 154.052 96.1555 156.276C97.6086 158.027 96.711 159.2 93.9159 159.2C91.4882 159.2 91.3419 156.439 93.1316 144.404C94.5671 134.757 93.5474 132.154 87.141 129.114C83.5451 127.408 76.4996 126.597 76.4996 127.888ZM78.4235 187.297C77.1739 188.964 76.9022 190.119 77.6502 190.582C79.5378 191.748 81.9996 190.23 81.9996 187.899C81.9996 184.652 80.5839 184.413 78.4235 187.297ZM72.6606 250.857C70.5585 252.441 70.6564 252.58 75.1356 254.373C80.0922 256.355 81.0217 258.409 77.8746 260.421C76.2312 261.471 76.3522 261.562 78.6996 261.04C80.2121 260.705 83.995 260.423 87.1069 260.415C92.9061 260.4 94.7486 258.971 93.4231 255.516C91.5905 250.742 77.1233 247.495 72.6606 250.857ZM88.1497 264.33C85.7858 265.197 80.8358 267.317 77.1497 269.043C73.4647 270.767 66.7371 273.061 62.1996 274.14C51.3932 276.71 51.094 276.963 56.2046 279.219C61.3284 281.48 67.5808 281.808 71.5023 280.022C77.1398 277.452 75.7637 280.572 67.9812 287.997C63.5482 292.227 59.0338 295.6 57.8062 295.6C54.8615 295.6 54.9363 298.86 57.9712 302.718C60.9654 306.525 64.8088 306.106 72.874 301.092C75.9947 299.153 78.9867 297.743 79.5235 297.958C80.0603 298.174 76.7207 301.815 72.1018 306.05C59.0756 317.994 52.8452 328.766 49.9841 344.296C48.7631 350.918 48.8445 351.786 51.1325 356.512C55.5798 365.7 57.4718 363.677 62.1743 344.708C64.1015 336.931 66.3862 328.563 67.2508 326.112C69.3606 320.134 68.4003 319.614 65.5535 325.193C62.8882 330.418 61.8586 330.985 62.8618 326.675C64.47 319.76 67.9537 313.911 73.886 308.165C81.4738 300.816 86.8847 297.526 97.1037 294.051C110.87 289.368 112.807 286.979 105.375 283.852C100.75 281.905 98.3313 282.342 86.9749 287.171C83.3581 288.708 80.2033 289.771 79.9646 289.531C79.0626 288.629 91.9744 275.115 96.7605 271.95C102.384 268.232 102.876 266.779 99.3543 264.313C96.403 262.245 93.8301 262.249 88.1497 264.33ZM23.9746 265.471C22.1387 266.288 22.2179 268.1 24.089 268.1C26.1064 268.1 31.3996 273.121 31.3996 275.034C31.3996 275.881 30.1984 278.256 28.731 280.312C22.3334 289.273 20.195 293.804 19.2798 300.337C16.0843 323.137 14.6719 338.18 15.2252 343.534C16.2515 353.482 22.4544 363.033 27.4858 362.413C29.688 362.142 30.3865 360.062 33.4775 344.55C34.2013 340.92 35.7446 333.495 36.9073 328.05C39.3141 316.777 40.7067 306.6 39.841 306.6C39.5187 306.6 38.6816 309.446 37.9809 312.925C37.2791 316.404 34.9636 323.705 32.834 329.15C25.7797 347.186 23.7282 345.706 25.8655 324.127C27.1206 311.452 27.0689 309.217 25.3628 302.253C24.3167 297.987 23.7568 293.323 24.1165 291.887C25.0196 288.293 31.9925 281.672 38.2746 278.445C42.6438 276.203 43.4996 275.253 43.4996 272.652C43.4996 267.774 40.0511 265.493 32.1619 265.152C28.4153 264.99 24.7314 265.133 23.9746 265.471ZM91.6708 304.265C89.6105 306.074 86.9738 309.32 85.8111 311.477C84.6495 313.634 83.4406 315.397 83.1249 315.393C82.8081 315.389 81.7059 313.904 80.6763 312.093C79.6456 310.282 78.3696 308.8 77.8405 308.8C76.6998 308.8 74.4778 320.16 73.215 332.45C72.2415 341.931 73.5989 347.778 77.0848 349.116C80.1406 350.289 82.0887 346.858 83.1711 338.397C84.9278 324.667 86.4799 317.259 88.6238 312.375C92.2208 304.181 92.9765 306.476 92.7928 325.025C92.6861 335.747 93.125 344.121 93.9445 346.995C95.3734 352.008 100.109 356.47 105.404 357.791C109.193 358.737 108.083 360.416 101.795 363.252C95.5065 366.088 97.0091 366.394 104.524 363.809C108.037 362.6 115.419 361.054 120.93 360.373C132.422 358.953 135.199 357.38 132.151 354.012C128.492 349.97 123.757 348.512 116.437 349.177C109.98 349.762 109.456 349.624 106.374 346.544C103.53 343.7 103.022 342.205 102.302 334.572C101.811 329.347 101.976 322.14 102.715 316.597C103.672 309.419 103.644 306.706 102.592 304.497C100.591 300.304 96.2875 300.212 91.6708 304.265Z" fill="#242324"/>
</g>
<defs>
<clipPath id="clip0_62_25">
<rect width="142" height="380" fill="white"/>
</clipPath>
</defs>
</svg>
