<svg width="142" height="380" viewBox="0 0 142 380" fill="none" xmlns="http://www.w3.org/2000/svg">
<path fill-rule="evenodd" clip-rule="evenodd" d="M53.2105 14.9741C50.7702 17.0653 50.3628 18.0879 50.6106 21.5065C50.8525 24.8402 50.5795 25.5789 49.0754 25.6638C48.0699 25.7208 44.312 25.9857 40.7247 26.2516C34.5606 26.7094 34.0157 26.5695 30.8047 23.7056C24.9777 18.5077 18.4393 20.6788 21.6915 26.7324C22.4471 28.1388 22.6196 31.6444 22.1992 37.0163C21.5139 45.7598 22.4962 48.7106 26.2872 49.3024C31.167 50.0661 34.7041 45.8268 34.7041 39.2184V35.6698L41.4773 35.6548C45.2031 35.6468 51.004 34.9931 54.3685 34.2034C57.7331 33.4127 61.5712 32.5441 62.8978 32.2742C64.2243 32.0033 68.6956 31.0477 72.8348 30.15C76.974 29.2524 83.5215 28.4407 87.3847 28.3458C94.3115 28.1748 94.4128 28.2098 94.7199 30.8588C94.9497 32.835 94.3586 33.9845 92.4852 35.208C90.08 36.7774 89.6977 36.7534 85.5856 34.7702C80.4871 32.3112 73.0506 31.9473 72.2157 34.1155C71.9097 34.9101 72.9763 37.4961 74.5869 39.8632C79.6984 47.3771 79.6432 48.0519 73.8383 49.0295C72.4586 49.2614 68.8462 50.159 65.8108 51.0237C56.7557 53.6017 54.9244 53.7126 53.5276 51.7654C50.0858 46.9683 42.7256 45.168 42.7376 49.1274C42.7416 50.247 43.3818 52.3821 44.1615 53.8705C45.8483 57.0913 46.5417 56.7574 32.2647 59.6053C21.8651 61.6804 19.1297 63.1378 20.2385 66.0167C21.6202 69.6023 26.2481 70.7898 38.6025 70.7288L50.3748 70.6718L52.0937 77.806C53.039 81.7304 53.6611 85.0921 53.4745 85.277C53.2888 85.4619 48.6509 84.5343 43.1681 83.2148C24.3436 78.6856 23.1174 78.7986 31.4449 84.2974C45.0997 93.3118 76.1974 105.81 85.3447 105.96C93.3783 106.091 95.0049 102.133 94.741 83.0998C94.5804 71.5765 94.8533 68.5197 96.3113 65.4849C98.3503 61.2436 99.4411 60.6608 106.952 59.7962C112.089 59.2044 112.493 58.9645 112.797 56.3236C113.347 51.5375 110.253 49.4233 100.564 47.9619C95.4333 47.1872 92.9037 45.7928 92.9037 43.7386C92.9037 42.3052 93.9392 41.4745 96.6666 40.7208C98.7367 40.148 101.234 39.6772 102.218 39.6742C105.507 39.6632 110.765 36.8753 111.429 34.7882C111.814 33.5837 111.275 30.8947 110.133 28.3248C108.431 24.4913 107.242 23.4577 100.908 20.301C92.6247 16.1726 88.8658 15.8348 78.1139 18.2538L71.1059 19.8302L66.7028 16.7624C60.3932 12.3672 56.8069 11.8923 53.2105 14.9741ZM67.7504 66.0967C65.5579 66.8334 64.4431 67.782 64.6849 68.7056C64.8926 69.5033 65.1956 74.1664 65.3562 79.0675C65.5589 85.217 66.0626 88.1988 66.9848 88.6866C67.7183 89.0765 70.8029 89.3394 73.8383 89.2714L79.3572 89.1484V77.1532V65.158L75.2762 65.0481C73.0315 64.9881 69.6449 65.4599 67.7504 66.0967ZM57.9799 138.43C52.5563 138.831 51.7646 140.631 55.098 144.984C61.6575 153.552 66.0094 165.503 62.6389 165.695C60.1714 165.835 58.3492 166.368 47.9144 169.998C35.7045 174.246 33.7197 174.744 27.5034 175.12C22.134 175.445 20.6559 176.115 20.6559 178.223C20.6559 180.837 27.4492 182.85 34.8616 182.432L41.6228 182.052L43.1089 185.58C44.022 187.746 44.8318 194.222 45.2061 202.353C45.8503 216.354 45.8744 216.278 41.2265 215.033C39.3209 214.523 39.2657 214.05 40.1387 205.645C41.2024 195.404 40.8763 194.755 33.3946 192.225C26.8251 190.003 25.2587 190.831 26.2481 196.003C27.0539 200.212 27.088 201.644 26.6364 212.279C26.1508 223.748 29.7481 227.601 40.9254 227.583C50.9799 227.568 59.7219 222.686 71.9338 210.268C79.0632 203.018 79.1706 203.047 85.2043 213.862C92.4601 226.864 103.472 232.786 109.406 226.875C110.816 225.471 112.011 223.821 112.062 223.209C112.466 218.382 111.483 211.877 109.329 205.102C106.13 195.045 99.0066 177.782 97.7312 176.996C97.1291 176.625 97.0218 178.783 97.4442 182.756C97.8165 186.25 98.2891 190.683 98.4948 192.607C99.8164 204.944 100.105 211.597 99.3196 211.587C97.5114 211.562 93.5298 203.922 88.6812 191.177C81.8166 173.128 82.0565 174.624 86.013 174.557C101.51 174.294 109.732 172.098 109.46 168.293C109.374 167.083 107.946 165.23 106.242 164.118C99.3237 159.602 99.3247 159.602 100.874 158.943C103.597 157.782 106.953 153.715 106.677 151.908C106.287 149.361 103.938 146.385 100.429 143.987C96.7529 141.476 94.0506 140.678 86.8409 139.969C82.5441 139.547 80.9848 139.776 79.9844 140.977C77.8842 143.499 79.4846 145.879 86.1364 150.124C93.0532 154.537 94.9166 158.165 90.7111 159.024C83.6549 160.467 77.849 160.638 77.7748 159.404C77.4848 154.546 73.9095 146.893 70.244 143.284C66.2312 139.333 63.0101 138.059 57.9799 138.43ZM36.2092 155.138C32.346 157.037 28.3854 158.598 27.4081 158.606C26.4297 158.614 25.0931 159.794 24.4369 161.23C23.4124 163.469 23.5137 164.034 25.1523 165.228C27.4512 166.902 38.3566 167.093 42.4155 165.529C46.0229 164.139 48.5887 163.488 51.883 163.126C58.6592 162.38 60.6822 160.334 58.1716 156.763C56.8029 154.817 48.3509 151.585 44.8067 151.653C43.9418 151.67 40.0725 153.239 36.2092 155.138ZM61.8763 178.309C58.3321 179.03 55.3378 179.732 55.2224 179.867C55.106 180.002 55.9058 182.434 57.0005 185.273C58.9181 190.25 59.0877 190.399 61.7599 189.471C63.2841 188.942 65.0351 187.407 65.6512 186.06C66.2673 184.713 67.4584 183.611 68.2983 183.611C69.8958 183.611 70.0613 182.491 68.9716 179.053C68.3434 177.071 68.0815 177.044 61.8763 178.309ZM70.828 194.096C69.4482 194.875 66.174 196.407 63.553 197.502L58.7867 199.492V204.546C58.7867 207.326 59.0305 209.6 59.3285 209.6C60.1142 209.6 67.9019 205.581 69.2134 204.499C69.8255 203.994 71.5675 202.653 73.0857 201.52C76.0739 199.288 76.5666 196.938 74.5909 194.334C73.4831 192.874 73.0436 192.846 70.828 194.096ZM83.3599 267.954C82.0474 269.948 82.0003 270.792 83.0649 273.202C83.7623 274.781 84.6012 276.299 84.9293 276.573C85.2564 276.848 85.8153 277.861 86.1726 278.823C86.6241 280.044 86.299 280.606 85.0959 280.684C84.1466 280.745 81.9371 280.962 80.185 281.166C77.3473 281.494 76.9289 281.211 76.3429 278.554C75.8943 276.521 74.913 275.379 73.2593 274.965C68.0856 273.672 67.8176 274.388 67.8176 289.537C67.8176 297.251 67.5838 303.563 67.2989 303.563C67.0139 303.563 64.8685 301.65 62.5325 299.314C60.1965 296.978 54.793 292.947 50.5243 290.357C44.895 286.941 42.9273 285.226 43.3568 284.109C44.2669 281.748 45.771 282.2 53.2126 287.069C56.9935 289.543 60.8538 291.567 61.79 291.567C64.3708 291.567 66.8142 288.284 66.8142 284.814C66.8142 280.874 61.5461 276.311 54.9174 274.506C52.3546 273.809 48.7743 271.964 46.9611 270.408C41.4482 265.673 38.5312 266.964 35.2951 275.574C33.803 279.542 32.8748 280.425 27.4181 283.071C19.2912 287.011 18.5116 288.42 21.8651 293.114C24.1409 296.301 24.3476 297.189 23.4244 299.824C22.425 302.68 23.0622 348.555 24.2252 357.468C25.1804 364.794 29.3949 367.753 34.9048 364.965C38.4419 363.176 46.2687 357.171 48.7523 354.342C51.3863 351.341 52.5804 351.91 55.4663 357.541C57.4611 361.431 59.1218 363.325 61.1458 364.017C63.6955 364.889 64.3237 364.642 66.9155 361.752C68.9134 359.525 69.8717 357.34 69.975 354.776C70.1115 351.376 70.1647 351.311 70.5651 354.042C71.124 357.847 72.5188 359.509 76.5676 361.196C86.306 365.25 121 362.437 121 357.592C121 357.014 120.355 356.541 119.565 356.541C118.389 356.541 118.225 354.948 118.659 347.719L119.187 338.895L116.073 335.794C113.934 333.663 111.205 332.3 107.355 331.442C102.363 330.329 100.81 330.427 93.1505 332.33C88.4213 333.507 84.1727 334.235 83.7101 333.95C83.2475 333.666 82.8693 332.335 82.8693 330.993C82.8693 328.79 83.2837 328.552 87.1339 328.545C91.837 328.537 101.796 327.134 109.279 325.426C115.053 324.107 115.847 322.615 116.669 311.551C117.126 305.394 116.935 303.765 115.629 302.685C114.184 301.49 114.278 301.035 116.601 298.002C123.557 288.917 119.099 278.902 106.583 275.491C104.415 274.901 100.603 272.478 97.949 270.006C93.9181 266.25 92.5695 265.578 89.0595 265.578C85.8113 265.578 84.5871 266.088 83.3599 267.954ZM92.9498 289.702C90.4924 290.863 86.7465 292.044 84.6273 292.327C81.3801 292.761 80.5443 293.39 79.3131 296.326C76.4452 303.164 77.7085 303.904 86.6743 300.64C89.5793 299.582 92.1752 298.713 92.4441 298.709C95.3952 298.66 104.05 296.141 104.94 295.072C105.574 294.31 105.947 292.423 105.77 290.878C105.481 288.369 105.018 288.044 101.433 287.831C98.9885 287.686 95.6711 288.418 92.9498 289.702ZM30.8308 293.78L26.4558 295.891L28.7115 297.586C30.5468 298.965 31.6908 299.098 34.8426 298.302C38.9486 297.263 39.342 296.596 37.6793 293.501C36.4119 291.143 36.2805 291.149 30.8308 293.78ZM39.9009 306.055C37.2087 307.554 36.1199 308.885 35.8781 310.973C35.5058 314.198 34.8546 314.235 45.9808 310.395C49.6985 309.111 52.747 307.756 52.754 307.382C52.76 307.009 52.0516 305.993 51.1796 305.124C49.1275 303.08 44.5669 303.456 39.9009 306.055ZM66.8082 313.809C66.7991 325.528 63.4687 333.551 58.6121 333.551C55.6539 333.551 56.4637 335.373 61.6615 340.417C64.3467 343.022 67.2106 346.421 68.0253 347.97C69.4542 350.688 69.5295 350.462 70.1677 341.515C71.2715 326.02 70.9644 313.818 69.374 310.028C68.5742 308.122 67.6711 306.561 67.3671 306.561C67.0631 306.561 66.8112 309.822 66.8082 313.809ZM92.9037 309.204C82.8843 312.436 82.8693 312.448 82.8693 317.099V321.474L90.6459 318.903C101.202 315.414 101.39 315.293 101.747 311.708C102.052 308.662 101.939 308.564 98.2349 308.64C96.1307 308.683 93.7315 308.936 92.9037 309.204ZM43.9859 320.367C37.023 322.594 35.7075 323.355 35.7075 325.155C35.7075 327.173 35.9775 327.241 40.4739 326.353C43.0949 325.836 45.9175 325.253 46.7454 325.059C47.5732 324.866 48.9911 324.673 49.8972 324.631C51.011 324.579 51.6753 323.423 51.9532 321.056C52.179 319.131 52.3406 317.593 52.3135 317.638C52.2864 317.682 48.5385 318.909 43.9859 320.367ZM36.9237 336.313C36.127 336.576 35.7075 339.102 35.7075 343.63C35.7075 347.432 35.857 350.544 36.0387 350.544C37.9964 350.544 48.1783 345.368 47.9595 344.483C47.8 343.838 46.5427 341.838 45.166 340.039C42.7708 336.911 39.5306 335.447 36.9237 336.313ZM99.426 341.228C98.3222 341.474 95.3872 342.281 92.9037 343.022C90.4201 343.763 87.1198 344.649 85.5705 344.991C83.0218 345.554 82.782 345.969 83.0619 349.328L83.371 353.043L88.8899 353.018C94.7861 352.991 103.294 349.669 104.326 346.99C104.975 345.304 103.367 340.491 102.211 340.664C101.783 340.728 100.53 340.982 99.426 341.228Z" fill="#242324"/>
</svg>
