<svg xmlns="http://www.w3.org/2000/svg" width="640" height="360" viewBox="0 0 640 360" version="1.1"><path d="M 43.316 92.488 C 31.385 95.405, 24 103.629, 24 114 C 24 125.137, 31.668 133.042, 48.298 139.048 C 62.313 144.110, 65 146.132, 65 151.619 C 65 156.770, 61.006 159.303, 53.706 158.781 C 46.965 158.298, 43.246 155.442, 42.111 149.877 L 41.422 146.500 31.711 146.214 L 22 145.928 22 149.996 C 22 168.079, 46.985 179.746, 70.032 172.424 C 83.119 168.266, 89.544 154.404, 84.022 142.240 C 80.478 134.431, 74.149 130.123, 56.492 123.502 C 47.109 119.983, 44.667 118.036, 44.667 114.072 C 44.667 109.569, 46.995 107.748, 53.437 107.214 C 60.133 106.658, 63.549 108.477, 64.784 113.255 L 65.623 116.500 75.812 116.785 C 85.685 117.061, 86 117.003, 86 114.901 C 86 105.668, 77.430 95.559, 67.187 92.712 C 60.114 90.745, 50.803 90.658, 43.316 92.488 M 95.239 132.750 L 95.500 173.500 105 173.500 L 114.500 173.500 114.774 156.750 L 115.048 140 129 140 L 142.952 140 143.226 156.750 L 143.500 173.500 153 173.500 L 162.500 173.500 162.761 132.750 L 163.022 92 153.011 92 L 143 92 143 108 L 143 124 129 124 L 115 124 115 108 L 115 92 104.989 92 L 94.978 92 95.239 132.750 M 174 121.428 C 174 148.591, 174.160 151.353, 176.024 156.333 C 179.752 166.300, 187.583 172.141, 199.743 174.028 C 215.966 176.545, 230.093 170.439, 235.649 158.507 C 237.931 153.606, 237.981 152.850, 237.990 122.750 L 238 92 228 92 L 218 92 218 121.050 C 218 145.463, 217.750 150.583, 216.434 153.128 C 213.231 159.322, 202.769 160.574, 197.859 155.352 C 195.513 152.856, 195.497 152.676, 195 122.671 L 194.500 92.500 184.250 92.215 L 174 91.930 174 121.428 M 250 132.990 L 250 174.245 271.250 173.772 C 295.160 173.240, 300.720 171.984, 306.751 165.752 C 315.821 156.381, 315.012 139.879, 305.186 133.806 L 301.796 131.711 304.918 129.267 C 309.388 125.769, 311 121.992, 311 115.018 C 311 104.816, 307.246 99.217, 297.500 94.884 C 292.980 92.875, 290.459 92.617, 271.250 92.198 L 250 91.736 250 132.990 M 322.185 122.750 C 322.479 151.497, 322.636 153.793, 324.595 158 C 330.264 170.175, 345.111 176.618, 361.477 174.004 C 368.891 172.819, 374.035 170.525, 378.259 166.519 C 386.168 159.018, 386.974 154.747, 386.988 120.250 L 387 92 376.541 92 L 366.083 92 365.791 122.421 C 365.500 152.823, 365.499 152.843, 363.141 155.351 C 358.272 160.531, 347.340 159.169, 344.273 153 C 343.368 151.181, 343.025 142.531, 343.015 121.250 L 343 92 332.435 92 L 321.870 92 322.185 122.750 M 398.239 132.750 L 398.500 173.500 408.250 173.786 L 418 174.072 418.030 163.286 L 418.060 152.500 421.880 148.080 L 425.700 143.661 434.129 158.580 L 442.558 173.500 463.999 173.500 L 485.439 173.500 487.970 166 L 490.500 158.500 503.132 158.221 L 515.763 157.942 518.161 165.721 L 520.559 173.500 530.797 173.785 C 538.434 173.998, 541.157 173.744, 541.513 172.785 C 541.775 172.078, 537.237 158.675, 531.428 143 C 525.619 127.325, 519 109.422, 516.719 103.216 L 512.572 91.933 503.043 92.216 L 493.514 92.500 489.715 102.500 C 484.974 114.977, 482.256 122.351, 480.497 127.500 C 479.746 129.700, 478.032 134.425, 476.688 138 C 475.344 141.575, 472.364 149.675, 470.066 156 C 467.768 162.325, 465.528 167.862, 465.089 168.305 C 464.382 169.017, 460.167 162.463, 444.205 135.841 C 441.843 131.901, 440.107 128.187, 440.348 127.589 C 440.776 126.523, 442.640 124.002, 458.294 103.317 C 462.532 97.717, 466 92.879, 466 92.567 C 466 92.255, 460.488 92.009, 453.750 92.020 L 441.500 92.040 434.947 101.770 C 431.342 107.122, 426.167 114.735, 423.447 118.688 L 418.500 125.876 418.226 108.938 L 417.953 92 407.965 92 L 397.978 92 398.239 132.750 M 547.239 132.715 L 547.500 173.500 556.349 173.790 C 562.013 173.976, 565.702 173.662, 566.599 172.918 C 567.725 171.984, 568.001 167.306, 568.005 149.128 L 568.011 126.500 571.848 133 C 573.958 136.575, 579.879 146.925, 585.006 156 C 590.133 165.075, 594.817 172.840, 595.414 173.255 C 596.011 173.670, 600.550 173.895, 605.500 173.755 L 614.500 173.500 614.761 132.750 L 615.022 92 605.029 92 L 595.036 92 594.768 115.885 L 594.500 139.770 581 116.135 L 567.500 92.500 557.239 92.215 L 546.978 91.930 547.239 132.715 M 270 117 L 270 126 276.032 126 C 288.085 126, 293.565 120.724, 289.890 112.657 C 288.320 109.212, 284.953 108, 276.953 108 L 270 108 270 117 M 498.860 130.500 L 495.279 142 503.041 142 L 510.804 142 509.317 137.250 C 507.496 131.434, 504 119.600, 504 119.253 C 504 119.114, 503.649 119, 503.220 119 C 502.791 119, 500.829 124.175, 498.860 130.500 M 270.211 148.123 L 270.500 157.500 278.525 157.406 C 282.939 157.354, 287.573 156.764, 288.823 156.095 C 291.781 154.512, 293.206 150.617, 292.400 146.320 C 291.460 141.307, 288.315 139.710, 278.354 139.188 L 269.922 138.745 270.211 148.123 M 190 241.958 L 190 276 198.013 276 L 206.027 276 205.763 242.250 L 205.500 208.500 197.750 208.208 L 190 207.916 190 241.958 M 222 241.964 L 222 276 229.158 276 L 236.315 276 235.715 251.250 L 235.114 226.500 238.307 232.043 C 240.063 235.092, 246.427 246.230, 252.449 256.793 L 263.399 276 273.199 276 L 283 276 283 242 L 283 208 276 208 L 269 208 269 232.224 L 269 256.449 261.137 242.974 C 256.813 235.564, 250.564 224.775, 247.250 219 L 241.226 208.500 231.613 208.214 L 222 207.928 222 241.964 M 299 242.084 L 299 276.169 315.750 275.805 C 331.789 275.457, 332.745 275.320, 338.281 272.589 C 350.457 266.581, 356.794 254.414, 355.742 239.062 C 355.044 228.878, 352.097 222.172, 345.855 216.559 C 338.231 209.704, 331.848 208, 313.806 208 L 299 208 299 242.084 M 369 241.958 L 369 276 377.013 276 L 385.027 276 384.763 242.250 L 384.500 208.500 376.750 208.208 L 369 207.916 369 241.958 M 414.932 210.678 C 414.372 212.152, 411.720 219.689, 409.038 227.428 C 403.098 244.573, 393.456 271.855, 392.491 274.250 C 391.853 275.835, 392.588 276, 400.268 276 L 408.750 276 411.070 267.971 L 413.390 259.942 425.340 260.221 L 437.291 260.500 439.499 268 L 441.707 275.500 449.853 275.790 C 454.334 275.950, 458 275.704, 458 275.242 C 458 274.781, 456.645 270.601, 454.990 265.952 C 450.377 253.001, 443.274 232.778, 438.760 219.750 L 434.690 208 425.320 208 C 416.080 208, 415.936 208.037, 414.932 210.678 M 314 242.500 L 314 264 317.818 264 C 323.783 264, 331.952 261.161, 334.570 258.179 C 341.402 250.397, 341.688 233.317, 335.115 225.667 C 332.565 222.700, 327.198 221, 320.378 221 L 314 221 314 242.500 M 421.582 233.305 C 419.612 239.616, 418 245.279, 418 245.890 C 418 246.606, 420.688 247, 425.567 247 C 432.419 247, 433.080 246.829, 432.559 245.187 C 432.243 244.190, 431.313 241.040, 430.492 238.187 C 429.671 235.334, 428.333 230.683, 427.518 227.851 C 426.703 225.019, 425.840 222.506, 425.600 222.267 C 425.360 222.027, 423.552 226.994, 421.582 233.305" stroke="none" fill="#222222" fill-rule="evenodd"/></svg>