<svg width="1080" height="1080" viewBox="0 0 1080 1080" fill="none" xmlns="http://www.w3.org/2000/svg">
<g clip-path="url(#clip0_77_3)">
<path d="M690.654 373.162C691.176 458.184 621.802 521.82 542.517 521.82C463.232 521.82 394.38 457.662 394.38 373.162C394.38 290.772 460.103 224.503 542.517 224.503C620.758 224.503 690.132 288.139 690.654 373.162Z" fill="white"/>
<path fill-rule="evenodd" clip-rule="evenodd" d="M513.763 226.651C461.91 235.367 416.163 277.247 400.25 330.566C391.688 359.256 391.994 391.285 401.086 418.02C402.549 422.324 403.493 424.201 403.185 422.193C399.425 397.771 400.685 382.046 407.915 363.121C417.883 337.032 439.434 315.371 465.309 305.431C477.908 300.591 477.78 300.564 479.873 308.482C486.039 331.815 505.161 350.084 528.955 355.375C536.973 357.159 550.666 356.68 559.229 354.317C596.236 344.104 616.471 303.504 602.306 267.883C594.189 247.468 574.345 231.147 552.099 226.589C542.837 224.691 525.254 224.719 513.763 226.651ZM570.684 228.588C588.149 234.929 598.857 241.539 610.401 253.103C623.617 266.341 632.503 281.754 637.52 300.137C639.511 307.435 639.949 311.681 639.998 324.131C640.054 338.275 638.377 351.602 636.387 352.832C635.965 353.091 633.098 352.516 630.015 351.551C621.906 349.012 602.352 349.089 594.678 351.688C574.503 358.52 558.832 373.061 552.09 391.202C539.591 424.835 556.873 462.529 590.573 475.138C608.243 481.749 627.931 479.997 645.274 470.27C655.022 464.802 663.027 457.436 669.679 447.814C680.969 431.482 687.467 413.33 690.364 390.025C691.864 377.966 691.919 374.357 690.784 362.91C687.351 328.306 675.636 300.595 653.454 274.61C633.184 250.866 597.666 230.944 568.076 226.722C564.594 226.226 565.026 226.534 570.684 228.588ZM458.091 350.716C433.98 356.203 414.935 374.981 408.872 399.242C406.65 408.138 407.146 425.274 409.913 435.233C414.315 451.067 424.637 466.953 440.489 482.288C460.144 501.301 483.036 513.259 511.546 519.403C527.131 522.764 556.29 522.77 571.393 519.418C585.853 516.209 593.348 513.673 605.701 507.813C624.2 499.039 642.448 485.217 654.334 470.978L658.836 465.586L650.49 472.595C637.574 483.444 618.784 492.293 602.571 495.165C593.743 496.729 575.67 496.519 566.511 494.748C549.574 491.471 535.958 485.109 521.652 473.787C511.427 465.693 511.566 466.085 517.033 460.72C523.211 454.659 529.211 445.336 532.762 436.277C535.367 429.632 535.63 427.703 535.681 414.891C535.741 399.435 534.724 394.885 528.567 383.072C524.726 375.702 511.855 362.238 504.682 358.086C491.654 350.545 472.297 347.483 458.091 350.716ZM784.741 974.096C783.485 975.266 782.457 977.178 782.457 978.344C782.457 980.222 778.03 1000.85 776.603 1005.62C776.2 1006.96 775.388 1007.28 773.521 1006.81C770.45 1006.04 766.111 1010.21 762.862 1017.06C760.402 1022.25 754.965 1027.8 753.332 1026.79C752.712 1026.41 752.204 1023.1 752.204 1019.44C752.204 1015.77 751.777 1012.51 751.255 1012.19C749.351 1011.02 746.977 1012.97 744.662 1017.62C743.359 1020.24 740.897 1023.23 739.191 1024.27C736.402 1025.97 735.995 1026 735.169 1024.52C733.675 1021.85 735.32 1016.6 738.766 1013.05C743.293 1008.38 741.53 1004.41 734.893 1004.32C732.805 1004.3 728.21 1009.04 728.21 1011.22C728.21 1012.49 727.154 1013.84 725.602 1014.55C723.474 1015.52 722.994 1015.46 722.994 1014.23C722.994 1012.11 717.98 1008.64 710.261 1005.41L703.694 1002.67L703.994 997.49C704.157 994.642 705.273 989.145 706.47 985.274C708.232 979.581 708.4 977.935 707.348 976.667C705.564 974.517 701.809 974.701 698.868 977.082C696.615 978.907 696.522 979.35 697.709 982.633C698.419 984.596 699 989.072 699 992.581V998.961L695.715 999.288C691.213 999.736 689.651 1002.42 691.732 1006.14C692.612 1007.72 694.372 1009.15 695.644 1009.34C697.827 1009.65 697.957 1010.18 697.971 1018.73C697.987 1028.97 698.649 1032.48 700.564 1032.48C702.465 1032.48 703.142 1028.98 703.158 1019.06L703.173 1010.34L706.041 1011.01C712.663 1012.56 714.649 1013.88 714.623 1016.69C714.605 1018.66 713.438 1020.29 710.499 1022.47C706.28 1025.59 704.814 1027.78 705.839 1029.44C707.155 1031.57 710.31 1030.1 715.209 1025.09C719.625 1020.57 726.591 1015.78 728.761 1015.78C729.109 1015.78 729.089 1016.74 728.718 1017.91C727.526 1021.67 729.254 1028.26 731.88 1029.98C734.029 1031.38 734.652 1031.39 737.259 1030.03C738.88 1029.19 741.361 1027.27 742.771 1025.76L745.335 1023.01L746.949 1026.44C748.946 1030.68 752.423 1031.39 756.477 1028.39C760.094 1025.72 760.55 1025.7 760.55 1028.18C760.55 1030.91 763.208 1032.82 766.013 1032.1C768.195 1031.54 773.472 1024.53 775.496 1019.49C776.263 1017.59 776.513 1017.79 777.754 1021.36C779.54 1026.49 783.204 1030.39 786.246 1030.39C787.581 1030.39 790.475 1028.63 792.831 1026.39C796.473 1022.93 797.112 1022.65 797.631 1024.28C798.562 1027.21 803.8 1030.39 807.711 1030.39C810.358 1030.39 812.073 1029.53 814.47 1027C823.142 1017.85 821.867 1011.68 811.294 1011.63C808.674 1011.61 808.387 1011.31 808.936 1009.12C809.938 1005.13 807.189 1003.57 802.828 1005.65C799.835 1007.08 799.018 1008.3 797.401 1013.76C795.479 1020.26 790.031 1026.83 787.314 1025.93C784.217 1024.9 784.212 998.822 787.307 985.539C789.973 974.098 790.16 971.969 788.506 971.969C787.691 971.969 785.996 972.927 784.741 974.096ZM565.357 985.687C563.563 988.207 562.909 990.865 562.548 997.108L562.076 1005.24L557.773 1005.56C554.219 1005.82 553.412 1006.28 553.137 1008.23C552.73 1011.09 555.532 1012.45 558.289 1010.73C561.802 1008.54 562.338 1009.35 562.338 1016.87C562.338 1025.75 564.801 1031.39 569.719 1033.77C573.341 1035.52 578.208 1034.79 580.92 1032.08C581.965 1031.03 584.082 1030.75 588.272 1031.09C592.966 1031.47 594.842 1031.13 597.547 1029.43C601.481 1026.95 602.122 1024.59 598.59 1025.6C591.669 1027.57 590.188 1027.58 588.784 1025.66C586.502 1022.54 587.13 1021.31 591.348 1020.63C598.333 1019.52 602.774 1012.41 598.904 1008.54C595.633 1005.26 591.181 1005.79 586.523 1010C583.639 1012.6 581.906 1013.44 580.26 1013.01C578.465 1012.54 577.986 1012.87 577.986 1014.57C577.986 1015.75 578.757 1017.16 579.699 1017.68C580.906 1018.36 581.244 1019.51 580.847 1021.59C580.537 1023.22 580.679 1025.59 581.164 1026.86C581.871 1028.73 581.531 1029.52 579.432 1030.89C572.904 1035.17 568.729 1029.68 568.647 1016.7L568.597 1008.76L578.553 1006.88C584.029 1005.85 588.783 1004.56 589.117 1004.02C589.48 1003.43 588.099 1003.27 585.682 1003.62C583.457 1003.94 578.939 1004.49 575.639 1004.85C568.451 1005.63 568.469 1005.69 572.375 993.878C573.878 989.329 574.832 984.884 574.494 984.004C574.133 983.062 572.605 982.402 570.787 982.402C568.511 982.402 567.079 983.268 565.357 985.687ZM318.777 984.749C318.542 985.467 318.129 987.931 317.857 990.226C317.585 992.521 316.555 1001.04 315.566 1009.15C313.59 1025.38 313.892 1028.51 317.669 1030.98C321.129 1033.25 323.81 1032.14 325.386 1027.78C326.573 1024.5 328.657 1022.75 328.657 1025.03C328.657 1026.8 334.196 1031.43 336.313 1031.43C337.498 1031.43 340.017 1029.93 341.908 1028.1C344.491 1025.59 345.348 1025.2 345.348 1026.51C345.348 1027.47 346.491 1029 347.887 1029.92C350.879 1031.88 353.253 1030.99 358.616 1025.92C361.707 1022.99 362.023 1022.9 362.603 1024.74C363.868 1028.75 364.915 1029.87 367.684 1030.2C369.873 1030.46 371.55 1029.5 375.13 1025.92C378.668 1022.38 380.487 1021.33 382.892 1021.41C385.58 1021.51 386.125 1022.01 386.676 1024.94C387.232 1027.89 390.335 1031.43 392.365 1031.43C393.611 1031.43 397.238 1027.76 399.973 1023.72L402.726 1019.67L402.76 1022.68C402.819 1027.8 408.529 1032.65 411.961 1030.5C413.083 1029.8 413.119 1029.14 412.141 1027.31C411.305 1025.75 411.142 1022.52 411.633 1017.28C412.251 1010.68 412.109 1009.46 410.663 1008.9C408.127 1007.93 403.769 1011.24 403.769 1014.14C403.769 1016.55 396.154 1026.22 394.256 1026.22C393.75 1026.22 393.337 1023.17 393.337 1019.44C393.337 1012.91 393.237 1012.65 390.752 1012.65C389.147 1012.65 387.522 1013.64 386.46 1015.26C385.52 1016.7 384.336 1017.87 383.828 1017.87C382.322 1017.87 382.776 1015.1 384.519 1013.66C386.81 1011.76 386.012 1008.03 383.229 1007.64C378.634 1006.98 374.424 1015.23 377.687 1018.5C379.01 1019.82 371.071 1027.81 369.436 1026.8C368.808 1026.41 368.299 1023.12 368.299 1019.44C368.299 1015.77 367.839 1012.49 367.278 1012.15C366.021 1011.37 362.04 1013.39 362.04 1014.8C362.04 1016.87 356.674 1023.86 354.231 1024.98C352.107 1025.94 351.622 1025.82 351.1 1024.17C350.097 1021.01 351.651 1016.54 354.973 1013.02C358.488 1009.29 358.27 1005.98 354.442 1004.96C350.779 1003.98 350.02 1004.16 346.998 1006.76C344.558 1008.85 344.248 1009.72 344.834 1012.85C346.14 1019.81 342.063 1028.3 337.419 1028.3C335.571 1028.3 333.826 1023.05 334.126 1018.39C334.373 1014.56 334.166 1014.19 331.592 1013.9C329.534 1013.66 328.329 1014.27 327.067 1016.2C326.122 1017.64 325.596 1019.22 325.9 1019.72C326.203 1020.21 325.604 1021.9 324.569 1023.48L322.686 1026.35L322.087 1023.36C321.125 1018.55 322.407 1000.37 324.033 995.762C326.703 988.195 325.577 983.445 321.113 983.445C320.062 983.445 319.011 984.032 318.777 984.749ZM411.332 985.597C408.709 986.614 408.049 991.481 410.237 993.668C411.95 995.381 415.764 995.244 417.283 993.413C420.389 989.67 415.932 983.813 411.332 985.597ZM442.607 985.258C439.139 986.466 438.388 991.023 438.685 1009.02C439.056 1031.33 438.967 1030.39 440.701 1030.39C442.609 1030.39 444.384 1025.17 445.138 1017.35C445.469 1013.91 446.625 1007.7 447.706 1003.55C449.976 994.827 450.234 988.309 448.366 986.864C446.453 985.384 444.115 984.732 442.607 985.258ZM627.982 987.184C625.473 989.859 625.455 990.034 625.7 1009.17C625.942 1028.13 626.197 1030.39 628.086 1030.39C629.906 1030.39 631.124 1026.41 632.274 1016.71C632.913 1011.32 634.144 1004.8 635.009 1002.22C637.194 995.703 637.04 987.531 634.7 985.82C632.072 983.899 630.827 984.151 627.982 987.184ZM297.36 986.251C295.926 986.491 291.936 987.569 288.493 988.646C285.05 989.723 280.121 990.906 277.539 991.274C270.499 992.278 269.601 992.667 268.488 995.201C266.409 999.937 268.196 1002.23 278.079 1007.49C283.233 1010.23 290.853 1013.29 295.013 1014.28C299.174 1015.28 302.576 1016.5 302.576 1016.99C302.576 1018.87 294.745 1025.13 288.266 1028.42C281.337 1031.94 279.556 1033.87 281.472 1035.78C282.218 1036.53 284.607 1035.72 289.174 1033.18C292.816 1031.15 298.378 1028.5 301.533 1027.29C307.946 1024.83 310.922 1021.98 310.922 1018.3C310.922 1015.53 308.5 1014.01 299.447 1011.09C277.234 1003.92 272.624 994.92 291.169 994.92C294.574 994.92 297.36 995.304 297.36 995.775C297.36 996.244 295.835 997.431 293.97 998.412L290.579 1000.2L295.705 999.641C302.925 998.859 307.191 996.153 307.59 992.1C307.828 989.686 307.304 988.437 305.533 987.196C303.159 985.533 302.27 985.431 297.36 986.251ZM466.075 993.314C464.482 994.144 462.466 995.537 461.594 996.409C460.722 997.281 458.227 998.474 456.049 999.061C450.849 1000.46 448.18 1003.43 449.037 1006.85C450.17 1011.36 459.482 1018.98 469.089 1023.26C473.969 1025.43 479.172 1028.16 480.649 1029.32C484.175 1032.09 484.993 1031.99 489.266 1028.22C492.556 1025.32 492.933 1025.21 493.584 1026.97C495.789 1032.94 501.351 1032.47 506.09 1025.93C508.563 1022.52 509.959 1021.52 512.272 1021.52C514.81 1021.52 515.354 1022.03 515.89 1024.88C516.452 1027.88 519.704 1031.43 521.887 1031.43C522.335 1031.43 524.342 1029.69 526.349 1027.56C528.356 1025.44 529.998 1024.28 529.998 1025C529.998 1026.76 534.757 1031.43 536.543 1031.43C537.327 1031.43 539.562 1030.01 541.511 1028.27C544.715 1025.41 545.121 1025.29 545.755 1027C546.911 1030.13 549.569 1031.72 552.423 1031.01C555.42 1030.25 561.295 1022.76 561.295 1019.69C561.295 1018.26 560.241 1019.18 557.808 1022.71C553.835 1028.49 549.819 1030.11 549.819 1025.93C549.819 1024.55 550.472 1021.25 551.272 1018.59C552.51 1014.48 552.511 1013.59 551.277 1012.57C549.208 1010.85 545.064 1013.79 544.268 1017.54C543.517 1021.08 538.856 1027.06 537.723 1025.94C536.621 1024.84 539.27 1014.65 541.244 1012.39C542.174 1011.33 544.311 1010.57 546.362 1010.57C550.443 1010.57 552.01 1008.14 549.53 1005.66C545.691 1001.82 535.727 1007.68 531.714 1016.14C529.712 1020.35 525.049 1026.22 523.696 1026.22C523.201 1026.22 522.655 1023.29 522.485 1019.71C522.222 1014.21 521.857 1013.14 520.136 1012.81C518.84 1012.56 517.24 1013.49 515.748 1015.37C513.298 1018.44 510.861 1018.06 513.09 1014.95C515.205 1012 515.646 1010.64 515.015 1009C514.152 1006.75 510.537 1007.08 507.972 1009.64C506.122 1011.49 505.871 1012.63 506.412 1016.71C506.992 1021.08 506.75 1021.91 503.981 1024.94C498.266 1031.19 496.207 1028.54 498.917 1018.41C499.867 1014.86 499.88 1013.42 498.97 1012.51C497.384 1010.92 492.442 1014.03 492.442 1016.61C492.442 1018.79 487.574 1026.22 486.145 1026.22C483.829 1026.22 485.973 1016.01 489.035 1012.47C489.867 1011.5 491.935 1010.75 493.631 1010.8C499.851 1010.98 500.317 1005.24 494.141 1004.5C488.694 1003.85 480.111 1011.81 478.312 1019.18C477.477 1022.59 477.709 1022.55 472.793 1020.05C467.867 1017.53 460.103 1009.21 460.103 1006.44C460.103 1004.4 460.487 1004.22 468.158 1002.67C471.06 1002.08 474.708 998.258 474.708 995.804C474.708 994.107 471.872 991.781 469.821 991.797C469.353 991.801 467.667 992.483 466.075 993.314ZM650.144 995.419C647.206 997.44 643.831 999.093 642.644 999.093C640.095 999.093 635.363 1003.5 635.363 1005.87C635.363 1009.46 645.037 1017.98 653.707 1022.03C664.028 1026.84 666.66 1027.72 666.66 1026.37C666.66 1025.33 664.861 1023.8 656.239 1017.54C651.328 1013.97 646.532 1007.84 647.161 1005.94C647.365 1005.33 648.901 1004.42 650.575 1003.93C657.611 1001.84 660.358 1000.15 661.028 997.481C661.77 994.522 661.043 993.419 657.682 992.407C656.141 991.943 653.888 992.843 650.144 995.419ZM672.026 1005.98C668.884 1008.19 666.66 1013.53 666.66 1018.84C666.66 1022.02 667.431 1023.89 669.898 1026.7C675.649 1033.25 682.669 1031.32 688.715 1021.52C689.778 1019.8 690.648 1017.6 690.65 1016.63C690.656 1014.03 686.57 1011.61 682.183 1011.61C678.521 1011.61 678.356 1011.46 678.504 1008.22C678.687 1004.17 675.941 1003.22 672.026 1005.98ZM589.852 1013.23C587.269 1017.17 589.548 1018.89 592.457 1015.2C593.678 1013.64 594.678 1011.97 594.678 1011.47C594.678 1009.55 591.51 1010.7 589.852 1013.23ZM675.155 1016.42C671.122 1019.25 672.91 1027.26 677.575 1027.26C680.567 1027.26 684.62 1022.54 684.18 1019.57C684.005 1018.38 682.479 1016.93 680.632 1016.17C677.919 1015.07 677.026 1015.11 675.155 1016.42ZM770.244 1017.89C766.438 1021.61 765.027 1025.47 767.659 1024.96C769.339 1024.64 774.786 1016.11 773.888 1015.21C773.641 1014.97 772.002 1016.17 770.244 1017.89ZM806.451 1015.56C802.745 1016.83 802.087 1023.73 805.388 1026.72C807.645 1028.76 809.142 1028.16 812.948 1023.65C815.536 1020.59 815.214 1018.43 811.928 1016.79C808.168 1014.92 808.262 1014.94 806.451 1015.56Z" fill="#D93617"/>
<path fill-rule="evenodd" clip-rule="evenodd" d="M393.824 56.0619C392.578 57.439 391.747 60.3099 391.465 64.2105L391.029 70.2341L385 72.8985L378.971 75.5628L375.983 73.2385C371.49 69.7448 368.622 69.121 367.415 71.3753C366.331 73.4013 368.146 79.1546 370.288 80.4774C371.047 80.9469 370.524 82.3865 368.749 84.714C362.637 92.729 360.327 105.872 363.293 115.771C363.98 118.068 366.811 122.428 369.583 125.461C375.372 131.795 375.79 131.326 362.244 133.708C357.599 134.525 352.636 135.954 351.216 136.884C347.976 139.007 346.393 143.458 346.393 150.438C346.393 153.423 346.085 158.81 345.709 162.408L345.025 168.95L339.573 171.361C332.591 174.449 320.057 177.037 312.086 177.037C306.536 177.037 305.612 177.349 303.597 179.906C301.667 182.353 301.392 183.808 301.729 189.816C301.946 193.689 301.736 196.858 301.26 196.858C300.785 196.858 299.244 198.011 297.836 199.419C294.294 202.96 294.351 208.546 297.962 212.159C300.277 214.474 301.303 214.772 305.355 214.316L310.06 213.785L306.841 217.108C299.827 224.344 303.783 230.413 318.8 235.452C328.361 238.661 331.789 241.239 331.786 245.223C331.785 249.375 325.845 259.912 315.643 273.86C303.41 290.584 298.405 299.751 298.405 305.429C298.405 310.724 301.243 313.698 306.299 313.698C309.357 313.698 309.923 314.024 309.471 315.524C301.466 342.096 300.053 350.554 300.098 371.597C300.228 431.484 323.893 488.319 367.471 533.398C372.517 538.618 376.646 543.196 376.646 543.57C376.646 543.944 375.542 544.25 374.192 544.25C371.166 544.25 365.575 547.953 362.658 551.889C359.275 556.455 359.563 566.731 363.208 571.457L365.939 574.999L358.201 585.047L350.463 595.094L330.954 599.883C299.999 607.482 279.421 610.688 254.83 611.742C241.893 612.296 240.004 612.597 240.395 614.045C240.643 614.961 241.396 618.145 242.068 621.121C243.258 626.388 243.422 626.568 248.158 627.843C251.886 628.847 283.77 629.29 384.47 629.734L515.916 630.315L516.224 632.967C516.527 635.558 516.321 635.646 507.242 636.792C488.633 639.141 479.634 642.049 460.103 652.027C431.486 666.645 442.126 665.263 358.243 665.263H285.917L276.773 667.918C252.977 674.828 225.709 679.281 195.908 681.121L175.305 682.394V687.416C175.305 693.407 175.755 693.671 188.867 695.352C209.694 698.021 276.065 700.702 321.853 700.722L344.779 700.733L336.458 709.141L328.136 717.548L372.473 717.123C421.106 716.655 424.769 716.266 440.024 709.935C444.185 708.208 454.278 702.533 462.453 697.323C470.627 692.113 480.133 686.576 483.576 685.019C499.846 677.653 517.316 674.665 544.083 674.665C580.535 674.665 598.074 679.45 624.41 696.581C654.071 715.875 661.136 717.408 720.363 717.418L759.98 717.424L751.852 709.248L743.724 701.073L788.91 700.363C851.038 699.387 892.892 697.172 906.635 694.131L912.339 692.869L912.647 687.634L912.954 682.399L892.304 681.141C862.527 679.327 835.139 674.854 811.392 667.93L802.248 665.263H729.923C646.244 665.263 655.921 666.456 629.927 652.931C609.381 642.241 597.776 638.523 578.77 636.543C571.89 635.827 571.728 635.741 571.728 632.828V629.848L703.434 629.503C805.416 629.235 836.245 628.86 840.036 627.839C844.9 626.529 844.942 626.479 846.158 620.621C846.832 617.375 847.612 614.121 847.893 613.39C848.283 612.375 846.302 612.059 839.56 612.059C815.207 612.059 775.446 605.47 740.423 595.629C738.454 595.076 734.849 591.433 729.307 584.396L721.105 573.981L723.549 571.373C731.639 562.738 728.995 549.67 718.051 544.202L712.62 541.488L716.871 537.392C725.725 528.863 741.283 509.889 749.13 498.05C771.869 463.746 784.378 427.466 787.745 386.045C789.461 364.945 787.577 346.115 781.788 326.492C780.305 321.464 778.855 316.528 778.567 315.524C778.141 314.045 778.709 313.695 781.554 313.683C785.701 313.664 786.918 312.976 788.662 309.667C791.832 303.651 787.988 295.156 772.546 274.056C759.991 256.899 760.393 258.071 765.552 253.655C770.388 249.515 772.566 244.044 770.865 240.31C770.293 239.055 766.917 236.511 763.363 234.656C751.883 228.665 735.513 218.745 735.513 217.78C735.513 217.263 738.091 214.637 741.243 211.946C746.788 207.208 747.132 207.073 751.936 207.754C754.666 208.14 763.124 209.926 770.732 211.723C785.966 215.319 789.029 215.118 791.707 210.346C793.915 206.414 792.486 200.258 788.889 198.193C786.173 196.634 786.074 196.28 786.458 189.477C786.825 182.985 786.633 182.16 784.185 179.712C781.765 177.292 776.233 176.088 771.589 176.972C769.292 177.409 753.654 173.599 748.636 171.38C743.165 168.96 743.133 168.918 742.464 163.342C742.094 160.26 741.784 155.155 741.776 151.999C741.756 144.239 740.145 138.978 737.197 137.046C735.849 136.163 730.811 134.698 726.001 133.789C712.261 131.195 712.725 131.592 717.609 126.595C723.59 120.478 726.073 114.41 726.101 105.848C726.126 98.0463 723.715 90.3504 719.523 84.8537C716.97 81.5071 716.963 81.4393 718.901 78.9178C719.98 77.5136 720.873 75.1257 720.885 73.6089C720.921 69.4235 718.057 69.0104 713.232 72.5062L709.08 75.5128L702.997 72.8244C697.123 70.2278 696.914 70.0004 696.914 66.1759C696.914 58.0399 691.911 51.7733 688.004 55.0156C687.176 55.7031 685.996 58.2068 685.384 60.5781C684.772 62.9503 684.053 65.6491 683.786 66.5755C683.426 67.8263 681.545 68.4012 676.49 68.807C660.931 70.0557 645.625 82.1873 637.082 100.039C631.023 112.701 629.663 118.788 629.787 132.7C630.008 157.666 637.15 179.447 652.862 203.073C656.121 207.974 666.793 221.608 676.578 233.371C705.697 268.378 711.899 276.738 720.695 292.834C747.648 342.154 745.039 409.878 714.165 462.338C700.889 484.896 680.111 507.712 659.288 522.596C639.437 536.786 609.788 549.75 585.824 554.717C565.524 558.925 539.694 560.129 520.583 557.758C459.356 550.162 406.42 516.212 375.081 464.443C343.97 413.053 340.16 345.693 365.584 296.555C374.956 278.442 382.073 268.58 408.542 237.022C428.974 212.664 436.862 201.886 443.383 189.414C453.753 169.584 458.05 153.083 458.152 132.7C458.226 117.877 456.765 111.427 450.495 98.8871C442.023 81.9432 426.972 70.2758 411.594 68.7308L404.524 68.0204L403.078 62.3578C402.282 59.2438 401.116 56.0755 400.487 55.3161C398.823 53.312 396.03 53.625 393.824 56.0619ZM406.088 113.075L406.378 127.353L409.98 128.286C414.491 129.453 423.779 135.554 427.158 139.572C428.565 141.243 429.906 142.61 430.139 142.61C430.373 142.61 431.156 140.631 431.88 138.213C433.661 132.271 433.397 122.499 431.286 116.142C428.126 106.628 417.872 98.7953 408.575 98.7953H405.798L406.088 113.075ZM672.357 99.9053C667.941 101.19 661.047 107.35 658.451 112.332C655.084 118.79 653.916 128.365 655.609 135.617C656.385 138.943 657.305 141.948 657.653 142.296C658.001 142.644 659.237 141.72 660.4 140.24C663.659 136.098 672.535 129.985 677.362 128.56L681.707 127.277L681.748 113.037L681.787 98.7974L678.658 98.8902C676.936 98.9414 674.101 99.3983 672.357 99.9053ZM459.582 768.542C459.109 770.694 458.268 771.671 456.891 771.671C455.105 771.671 454.887 772.467 454.887 778.974C454.887 784.77 454.564 786.276 453.323 786.276C452.454 786.276 451.758 787.204 451.758 788.363C451.758 789.543 452.453 790.449 453.358 790.449C454.684 790.449 454.837 791.392 454.253 795.926C453.865 798.939 453.141 802.498 452.645 803.838C451.725 806.32 452.222 808.184 453.803 808.184C455.125 808.184 456.785 802.674 457.58 795.655C458.119 790.889 458.688 789.403 459.977 789.391C460.908 789.384 462.725 789.094 464.015 788.749C466.311 788.133 466.363 788.312 466.363 796.685C466.363 804.372 466.149 805.306 464.276 805.795C461.818 806.438 461.45 809.227 463.824 809.227C464.722 809.227 466.365 808.741 467.475 808.147C469.234 807.205 469.492 805.896 469.492 797.924C469.492 792.041 469.958 788.287 470.796 787.398C471.84 786.292 471.84 785.92 470.796 785.538C469.938 785.223 469.492 782.77 469.492 778.366V771.671H465.805C462.427 771.671 462.212 771.494 463.245 769.563C464.507 767.205 463.835 765.412 461.689 765.412C460.909 765.412 459.959 766.82 459.582 768.542ZM506.005 769.585C506.005 773.659 505.918 773.758 502.354 773.758C499.398 773.758 498.703 774.155 498.703 775.844C498.703 777.718 499.398 777.931 505.533 777.931H512.365L509.148 782.605C507.379 785.176 504.089 788.761 501.835 790.572C498.352 793.371 497.903 794.172 498.835 795.914C499.894 797.891 500.04 797.86 502.968 795.054L506.005 792.146V800.686C506.005 808.531 506.175 809.227 508.091 809.227C510.014 809.227 510.178 808.531 510.178 800.36C510.178 795.483 510.574 791.493 511.059 791.493C511.545 791.493 512.789 792.429 513.826 793.575C515.343 795.251 516.008 795.411 517.235 794.393C518.53 793.318 518.179 792.64 514.912 789.897L511.065 786.667L514.381 781.332C518.079 775.382 517.812 773.758 513.136 773.758C510.058 773.758 509.971 773.627 510.356 769.585C510.715 765.822 510.521 765.412 508.379 765.412C506.304 765.412 506.005 765.939 506.005 769.585ZM527.913 772.715V780.017H522.697C518.176 780.017 517.48 780.296 517.48 782.104C517.48 783.911 518.176 784.19 522.697 784.19H527.913V794.101V804.011H521.653C516.09 804.011 515.394 804.243 515.394 806.098C515.394 808.077 516.09 808.184 528.956 808.184C541.822 808.184 542.518 808.077 542.518 806.098C542.518 804.29 541.822 804.011 537.302 804.011H532.086V794.101V784.19H536.78C540.779 784.19 541.474 783.881 541.474 782.104C541.474 780.326 540.779 780.017 536.78 780.017H532.086V772.715C532.086 766.108 531.887 765.412 529.999 765.412C528.111 765.412 527.913 766.108 527.913 772.715ZM597.125 767.022C596.785 767.907 596.683 768.762 596.897 768.919C597.111 769.078 599.017 770.198 601.133 771.409C604.525 773.35 605.133 773.424 606.281 772.04C607.698 770.332 607.389 769.983 601.773 766.938C598.251 765.03 597.887 765.036 597.125 767.022ZM619.716 769.063V772.715H613.978C608.936 772.715 608.241 772.967 608.241 774.801C608.241 776.635 608.936 776.887 613.978 776.887H619.716V780.539V784.19H612.935C606.85 784.19 606.154 784.404 606.154 786.276C606.154 788.054 606.85 788.363 610.849 788.363C613.431 788.363 615.543 788.518 615.543 788.707C615.543 790.896 610.113 801.487 608.861 801.74C607.946 801.926 607.197 803.042 607.197 804.222C607.197 806.306 607.543 806.345 619.572 805.627C630.279 804.988 632.032 805.109 632.574 806.519C633.266 808.326 636.407 807.665 636.407 805.712C636.407 803.601 629.11 793.579 627.573 793.579C625.083 793.579 624.862 795.295 627.001 798.014L629.04 800.607L624.232 801.265C621.588 801.629 618.368 801.925 617.077 801.925H614.728L617.483 795.159L620.238 788.395L628.844 788.379C636.75 788.364 637.451 788.193 637.451 786.276C637.451 784.404 636.755 784.19 630.67 784.19H623.889V780.539V776.887H629.105C633.625 776.887 634.321 776.609 634.321 774.801C634.321 772.987 633.625 772.715 628.991 772.715H623.66L624.087 769.063C624.465 765.825 624.241 765.412 622.114 765.412C620.069 765.412 619.716 765.949 619.716 769.063ZM475.404 767.151C475.021 767.533 474.708 770.245 474.708 773.178C474.708 776.199 474.039 779.466 473.162 780.716C471.832 782.616 471.823 783.094 473.093 784.148C475.157 785.861 477.936 781.419 478.626 775.308C479.114 770.973 479.374 770.628 482.147 770.628C485.027 770.628 485.141 770.818 485.141 775.636C485.141 781.294 486.427 783.147 490.357 783.147C491.849 783.147 493.632 782.584 494.321 781.895C496.075 780.141 495.883 776.186 494.008 775.467C492.877 775.034 492.443 775.581 492.443 777.441C492.443 779.035 491.846 780.017 490.878 780.017C489.648 780.017 489.314 778.568 489.314 773.236V766.455H482.707C479.072 766.455 475.786 766.768 475.404 767.151ZM658.624 775.229C657.066 786.653 653.262 794.424 646.102 800.804C641.856 804.589 640.887 805.987 641.845 806.945C643.756 808.856 644.457 808.543 650.166 803.229C655.121 798.618 661.442 787.995 661.444 784.277C661.445 781.943 662.604 783.69 665.057 789.725C667.933 796.803 671.848 801.94 677.174 805.632C681.185 808.412 681.437 808.456 683.139 806.669C684.674 805.059 684.703 804.732 683.352 804.276C682.492 803.986 679.153 801.076 675.934 797.808C669.17 790.944 665.701 783.179 664.839 772.975C664.35 767.178 664.041 766.455 662.055 766.455C660.044 766.455 659.701 767.33 658.624 775.229ZM547.734 788.363C547.734 808.531 547.804 809.227 549.82 809.227C550.968 809.227 551.907 808.758 551.907 808.184C551.907 807.535 557.819 807.141 567.555 807.141C577.291 807.141 583.203 807.535 583.203 808.184C583.203 808.758 584.142 809.227 585.29 809.227C587.306 809.227 587.376 808.531 587.376 788.363V767.499H567.555H547.734V788.363ZM551.907 787.32V802.968H567.555H583.203V787.32V771.671H567.555H551.907V787.32ZM570.685 775.844V778.974H562.339C555.616 778.974 553.993 779.279 553.993 780.539C553.993 781.799 555.616 782.104 562.339 782.104H570.685V789.928V797.752H567.587C565.263 797.752 564.64 798.142 565.091 799.317C565.818 801.21 571.805 801.43 573.606 799.63C574.365 798.87 574.857 795.178 574.857 790.241V782.104H577.987C580.074 782.104 581.117 781.582 581.117 780.539C581.117 779.496 580.074 778.974 577.987 778.974C575.205 778.974 574.857 778.627 574.857 775.844C574.857 773.41 574.394 772.715 572.771 772.715C571.148 772.715 570.685 773.41 570.685 775.844ZM458.017 780.476C458.017 786.676 458.51 787.094 464.067 785.606C466.195 785.035 466.431 784.418 466.153 780.142C465.845 775.39 465.786 775.318 461.929 774.999L458.017 774.675V780.476ZM460.484 777.609C458.904 778.163 461.137 783.127 462.972 783.138C464.582 783.149 464.573 782.224 462.936 779.388C462.239 778.181 461.135 777.381 460.484 777.609ZM594.114 780.087C593.736 780.698 593.591 781.299 593.792 781.421C596.573 783.114 602.348 785.129 603.096 784.668C604.986 783.499 604.024 781.978 600.45 780.486C596.132 778.682 595.026 778.612 594.114 780.087ZM403.77 786.798V789.406H425.677H447.585V786.798V784.19H425.677H403.77V786.798ZM558.166 786.332C558.166 786.936 559.245 789.018 560.563 790.957C562.228 793.409 563.388 794.22 564.365 793.617C565.496 792.918 565.317 792.015 563.448 788.991C561.265 785.459 558.166 783.899 558.166 786.332ZM472.622 788.363C472.622 789.827 473.323 790.455 474.969 790.465C476.679 790.476 476.933 790.725 475.905 791.376C474.374 792.346 475.447 795.375 478.607 799.003C480.003 800.604 479.815 800.98 476.648 802.911C474.72 804.085 472.541 805.048 471.803 805.05C470.786 805.053 470.732 805.557 471.579 807.14C472.682 809.202 472.751 809.197 477.717 806.681L482.739 804.135L487.839 806.717C492.655 809.155 493.015 809.197 494.283 807.462C495.478 805.828 495.192 805.474 491.713 804.269C489.561 803.524 487.432 802.547 486.983 802.098C486.534 801.649 487.624 798.594 489.403 795.309C493.952 786.91 493.436 786.276 482.043 786.276C473.318 786.276 472.622 786.431 472.622 788.363ZM460.103 795.665C460.103 799.607 460.486 800.882 461.668 800.882C462.85 800.882 463.233 799.607 463.233 795.665C463.233 791.724 462.85 790.449 461.668 790.449C460.486 790.449 460.103 791.724 460.103 795.665ZM477.838 791.071C477.838 792.119 482.106 797.752 482.9 797.752C483.652 797.752 487.227 792.231 487.227 791.071C487.227 790.729 485.115 790.449 482.533 790.449C479.951 790.449 477.838 790.729 477.838 791.071ZM599.514 797.183C595.277 804.892 595.158 805.374 597.087 806.976C598.154 807.861 599.325 806.494 602.43 800.747C605.948 794.234 606.227 793.206 604.856 791.835C603.485 790.463 602.869 791.08 599.514 797.183ZM68.8964 841.21C68.0357 841.497 66.6806 841.939 65.8856 842.193C64.7089 842.567 64.7631 843.011 66.1756 844.573C68.2788 846.896 67.5308 849.341 62.1446 857.761C58.5142 863.438 58.4558 863.475 53.2606 863.475H48.032V858.7C48.032 854.841 47.4613 853.354 45.0567 850.95C41.2208 847.114 31.714 844.209 27.829 845.687L25.0634 846.738L28.5843 850.152C32.6466 854.088 37.2451 864.382 35.2139 864.994C31.9508 865.975 11.4411 867.871 9.51842 867.368C3.20695 865.718 9.77088 873.878 18.0478 877.973C21.6813 879.771 22.4919 879.834 25.5485 878.556C29.8737 876.75 43.8403 873.541 44.5017 874.202C45.2414 874.942 33.2934 885.419 30.4297 886.543C29.0673 887.077 26.4853 887.26 24.692 886.948C22.8977 886.636 20.7257 886.854 19.8651 887.432C18.5475 888.317 18.7728 888.864 21.287 890.892L24.2737 893.302L23.6144 906.816C23.2524 914.249 22.6818 922.594 22.3458 925.36C21.7491 930.274 21.8461 930.498 26.5344 934.989C32.0718 940.295 35.4894 941.478 40.2819 939.744C44.1011 938.363 59.4521 936.424 67.1573 936.348C70.7773 936.312 72.8366 936.882 74.4598 938.365C79.1773 942.679 84.7606 941.943 87.6023 936.635C88.1771 935.561 89.1703 926.054 89.8098 915.509C90.4482 904.965 91.4038 895.89 91.9306 895.345C93.5215 893.702 93.0114 888.94 91.0648 887.261C90.0601 886.394 86.8011 884.384 83.8227 882.793C79.7437 880.615 77.6813 880.087 75.477 880.654C72.1147 881.521 56.3756 882.961 56.3767 882.403C56.3777 882.198 57.5513 881.108 58.9858 879.979C60.7008 878.631 61.5938 876.888 61.5938 874.891V871.853L81.5214 872.178C98.8461 872.462 101.729 872.278 103.587 870.773C106.619 868.317 105.344 864.258 100.676 861.504C95.3107 858.338 92.6964 857.94 89.2057 859.761C87.3999 860.703 83.5014 861.368 79.8502 861.359L73.5908 861.342L76.1989 859.301C77.6333 858.177 80.3332 856.743 82.1974 856.113C89.3236 853.705 87.1861 847.171 77.7825 842.62C73.4271 840.511 71.7777 840.249 68.8964 841.21ZM257.156 842.41L253.985 844.109L258.46 848.397C262.091 851.876 262.935 853.386 262.935 856.402V860.119L250.979 861.925C244.402 862.92 237.83 863.44 236.374 863.082C227.561 860.917 228.166 860.884 229.534 863.441C231.202 866.558 230.129 871.722 226.791 876.641C224.265 880.363 224.163 880.968 225.257 885.711C226.446 890.863 229.641 894.672 232.827 894.737C238.296 894.847 242.621 884.556 240.923 875.468C240.406 872.698 240.119 870.294 240.286 870.128C240.746 869.668 249.126 872.268 249.999 873.142C250.42 873.563 250.257 873.907 249.638 873.907C248.833 873.907 248.836 874.766 249.647 876.913C251.285 881.256 246.566 890.346 238.239 898.88C234.635 902.575 231.908 905.82 232.179 906.091C232.45 906.363 234.889 906.501 237.599 906.399C247.494 906.024 257.22 898.663 262.483 887.566C264.971 882.32 265.105 881.467 263.808 879.123C262.881 877.448 260.509 875.896 257.173 874.785C252.221 873.136 252.102 873.01 254.589 872.046C256.024 871.49 259.532 870.481 262.385 869.805C269.076 868.218 270.084 869.454 270.116 879.289C270.143 887.848 270.696 890.014 273.965 894.382C277.423 899.001 287.172 901.58 297.782 900.684C307.242 899.884 310.923 898.372 310.923 895.287C310.923 892.37 308.538 890.247 302.214 887.536C297.431 885.486 296.897 885.457 292.352 887C289.709 887.897 286.469 888.361 285.151 888.03C282.962 887.48 282.756 886.849 282.756 880.683V873.936L278.431 871.075C274.256 868.311 274.192 868.188 276.605 867.512C277.98 867.127 282.994 866.766 287.748 866.709C297.787 866.588 297.788 866.596 289.455 875.865L284.561 881.307L290.503 878.679C295.746 876.36 297.575 876.095 306.031 876.425C316.354 876.828 318.226 876.173 318.226 872.152C318.226 868.104 308.765 858.802 303.01 857.19C299.464 856.198 297.993 856.166 297.095 857.064C296.389 857.77 292.35 858.259 287.215 858.259H278.53L280.118 855.187C282.555 850.475 280.778 847.194 274.155 844.169C266.882 840.847 261.174 840.257 257.156 842.41ZM473.293 841.47L468.227 842.089L470.757 844.807C472.149 846.303 473.774 847.712 474.367 847.937C474.978 848.17 475.701 853.641 476.03 860.52L476.614 872.693L471.75 873.289C458.708 874.887 442.305 875.929 439.378 875.343C432.74 874.015 436.091 878.54 446.003 884.287C453.264 888.497 457.494 889.557 458.231 887.35C458.665 886.047 473.348 882.977 474.814 883.882C475.329 884.201 475.752 886.812 475.752 889.686C475.752 892.557 476.199 895.743 476.746 896.765C477.647 898.451 476.835 898.733 467.939 899.827C462.549 900.488 455.177 901.046 451.557 901.065L444.977 901.1L447.44 903.151C448.794 904.28 450.555 905.203 451.352 905.203C452.149 905.203 452.811 905.556 452.824 905.986C452.837 906.416 453.733 912.151 454.813 918.732C456.724 930.362 456.896 930.804 460.965 934.599C466.259 939.539 469.869 940.556 472.772 937.929C474.628 936.25 477.247 935.909 491.769 935.458C501.033 935.171 509.238 934.531 510.002 934.039C510.857 933.487 511.149 932.184 510.764 930.646C510.388 929.149 510.921 926.586 512.096 924.24C513.173 922.09 514.345 919.12 514.699 917.64C515.054 916.16 516.529 914.41 517.977 913.75C520.621 912.546 521.386 909.482 519.967 905.785C519.614 904.864 516.015 902.178 511.97 899.815C505.237 895.883 504.338 895.62 501.324 896.711C499.514 897.366 495.782 897.901 493.03 897.901C488.335 897.901 488.069 897.756 488.708 895.554C489.083 894.263 489.668 890.793 490.007 887.844C490.606 882.643 490.738 882.463 494.403 881.859C496.48 881.517 504.609 881.772 512.467 882.425C525.329 883.494 527.019 883.438 529.419 881.866C534.34 878.641 532.849 875.736 523.554 870.432C517.804 867.151 515.867 867.006 511.991 869.562C509.899 870.94 506.823 871.518 500.776 871.667L492.443 871.871L492.489 866.891C492.514 864.152 493.201 860.04 494.014 857.755C495.7 853.021 494.727 850.571 489.785 847.104C488.307 846.067 485.768 844.162 484.142 842.871C482.518 841.581 480.552 840.598 479.774 840.688C478.996 840.778 476.079 841.13 473.293 841.47ZM375.603 842.923C375.603 843.669 376.164 844.841 376.85 845.527C377.82 846.496 377.644 847.128 376.068 848.352C372.17 851.381 353.574 861.566 346.889 864.334C343.182 865.87 340.146 867.479 340.142 867.908C340.131 868.893 354.262 868.774 362.562 867.719C369.532 866.835 370.345 867.328 370.371 872.456C370.387 875.696 370.382 875.699 362.302 876.983C348.648 879.153 335.96 881.413 335.96 881.676C335.96 881.812 339.232 883.877 343.231 886.262C350.659 890.692 353.478 891.441 355.417 889.502C356.604 888.316 366.625 885.415 369.604 885.395C371.074 885.384 371.43 886.296 371.43 890.077C371.43 892.659 371.128 894.771 370.759 894.771C367.964 894.771 327.807 901.424 326.609 902.085C325.524 902.684 327.76 904.165 334.318 907.196C343.693 911.526 346.812 912.272 347.938 910.451C348.646 909.305 360.559 905.709 366.475 904.856L370.387 904.292L370.371 912.832C370.362 917.53 369.944 922.021 369.442 922.814C368.708 923.974 367.012 924.067 360.723 923.294L352.916 922.334L358.981 928.307C362.317 931.591 365.784 935.703 366.684 937.445C369.062 942.042 371.749 943.187 375.545 941.224C381.092 938.356 383.931 928.384 383.942 911.724L383.948 903.117H394.728C400.657 903.117 408.051 903.624 411.159 904.243C418.716 905.749 422.548 904.38 422.548 900.175C422.548 896.835 420.773 895.015 414.949 892.382C410.498 890.371 407.332 890.097 406.378 891.642C406.015 892.229 400.977 892.685 394.841 892.685H383.948V887.312V881.94L395.196 882.533C404.807 883.04 406.789 882.867 408.814 881.339C412.638 878.454 410.401 874.418 403.219 871.241C398.051 868.956 397.198 868.844 395.13 870.176C393.857 870.996 391.053 871.988 388.899 872.382C385.365 873.027 384.548 872.709 380.553 869.132C378.117 866.952 375.997 864.875 375.843 864.518C375.52 863.778 384.636 860.817 390.431 859.778C395.989 858.782 396.925 857.204 394.711 852.561C393.239 849.476 391.437 848.034 385.438 845.148C377.328 841.248 375.603 840.858 375.603 842.923ZM582.898 842.221C582.538 842.58 583.751 843.889 585.592 845.129C588.583 847.142 589.026 848.104 589.743 854.125C590.183 857.833 590.984 864.151 591.521 868.164C592.058 872.178 592.146 875.814 591.717 876.243C590.719 877.241 560.604 883.161 552.675 883.919C545.747 884.58 545.776 885.645 552.804 888.706C563.205 893.234 565.028 893.656 567.851 892.192C570.335 890.903 570.503 890.996 571.099 893.975C571.445 895.704 571.728 900.784 571.728 905.266C571.728 909.747 572.191 914.632 572.757 916.121C573.665 918.509 573.472 918.947 571.124 919.84C569.66 920.396 568.313 920.852 568.13 920.852C567.947 920.852 567.46 917.683 567.048 913.81C566.635 909.936 565.838 905.907 565.277 904.854C563.918 902.304 556.441 898.995 551.972 898.967L548.387 898.944L551.266 901.95C554.809 905.647 559.116 922.744 556.86 924.151C554.927 925.357 547.051 926.38 544.073 925.811C542.644 925.538 541.474 925.714 541.474 926.202C541.474 927.759 551.214 934.288 556.011 935.947C560.402 937.466 560.75 937.44 562.889 935.431C566.059 932.452 579.773 927.337 592.021 924.566C603.455 921.978 605.765 920.284 602.611 916.799C599.812 913.706 595.476 913.169 588.846 915.096C585.619 916.035 582.809 916.633 582.601 916.425C581.787 915.609 583.575 908.132 584.659 907.823C585.293 907.641 588.093 906.903 590.882 906.181C593.672 905.458 596.81 903.948 597.857 902.824C599.725 900.82 599.819 900.908 602.839 907.569C611.177 925.958 625.274 939.533 636.11 939.607C640.846 939.639 642.321 936.636 640.189 931.305C639.311 929.111 638.286 924.805 637.912 921.737C637.537 918.668 636.545 913.701 635.707 910.699C634.151 905.123 632.254 902.535 632.21 905.924C632.093 914.58 629.971 923.981 628.133 923.981C626.317 923.981 615.669 909.903 612.887 903.826C610.509 898.634 606.154 885.185 606.154 883.038C606.154 882.606 609.642 882.253 613.904 882.253C619.666 882.253 622.088 881.818 623.348 880.557C626.171 877.735 624.867 874.659 619.756 872.081C613.822 869.089 609.985 869.062 608.035 871.999C607.054 873.476 606.054 873.968 605.159 873.414C604.106 872.764 603.91 869.948 604.319 861.319L604.852 850.071L599.112 845.819C594.308 842.26 592.572 841.567 588.462 841.567C585.761 841.567 583.256 841.861 582.898 842.221ZM713.177 842.46C712.851 842.987 713.284 843.997 714.139 844.706C714.993 845.416 715.692 846.938 715.692 848.088C715.692 850.646 710.287 860.292 707.38 862.923C705.288 864.815 705.26 864.793 705.244 861.289C705.222 856.191 703.208 852.902 698.459 850.213C694.615 848.036 686.482 846.901 686.482 848.542C686.482 848.935 687.506 850.347 688.758 851.679C690.74 853.789 692.513 857.495 694.461 863.601C695.072 865.516 693.238 866.168 684.352 867.191C678.735 867.836 678.639 867.801 677.256 864.593C675.582 860.71 672.123 858.79 665.164 857.877C662.332 857.506 658.888 856.463 657.51 855.561C654.72 853.733 654.1 853.963 653.879 856.902C653.423 862.949 659.576 869.284 668.035 871.478C672.336 872.594 673.698 872.602 675.333 871.516C677.048 870.378 678.201 870.617 683.216 873.157C688.957 876.064 690.19 876.166 696.808 874.292L699.31 873.582L697.329 877.034C696.24 878.932 694.059 880.986 692.48 881.597C689.206 882.867 688.97 883.551 691.176 885.382C692.94 886.846 693.137 893.017 691.792 904.682C691.183 909.974 691.316 912.713 692.278 914.629C694.747 919.548 701.463 921.443 710.567 919.792C716.242 918.763 717.039 918.853 719.514 920.801C725.428 925.452 730.734 922.208 731.665 913.369C731.987 910.312 732.291 903.117 732.34 897.379C732.389 891.642 732.71 885.397 733.054 883.503C733.749 879.671 732.991 878.816 725.369 874.854C722.234 873.225 720.577 872.873 719.631 873.637C718.899 874.226 716.807 875.028 714.983 875.418C712.295 875.992 711.451 875.729 710.546 874.037C709.762 872.574 709.757 871.743 710.528 871.266C711.134 870.892 717.894 870.594 725.549 870.603C738.983 870.621 739.553 870.532 741.871 868.065C744.245 865.537 744.249 865.489 742.24 863.616C739.477 861.043 731.848 858.968 729.521 860.158C727.327 861.279 720.908 862.578 720.908 861.901C720.908 861.639 723.197 860.264 725.994 858.846C728.792 857.428 731.389 855.462 731.768 854.476C732.591 852.331 727.698 845.804 723.943 844.035C720.243 842.293 713.858 841.358 713.177 842.46ZM895.344 843.407C894.539 843.675 895.058 845.071 896.82 847.382C899.185 850.482 899.445 851.564 898.821 855.719C897.698 863.204 896.282 864.003 881.478 865.485C874.366 866.196 867.953 867.112 867.227 867.518C866.413 867.974 869.522 870.029 875.333 872.877C883.6 876.93 885.023 877.333 886.915 876.152C888.1 875.411 889.235 874.971 889.437 875.173C890.035 875.771 883.489 885.382 882.484 885.382C881.978 885.382 881.564 885.975 881.564 886.7C881.564 888.476 868.077 903.742 862.859 907.871C858.37 911.423 858.363 912.506 862.829 912.506C867.317 912.506 873.86 909.779 879.221 905.676C883.755 902.204 884.199 902.061 884.494 903.982C885.102 907.939 882.821 924.248 881.548 925.034C878.444 926.953 885.179 937.543 889.505 937.543C892.479 937.543 894.042 932.798 894.672 921.847C895.472 907.952 895.5 907.865 898.497 909.746C903.861 913.111 908.248 913.76 914.029 912.044C917.036 911.151 920.586 910.419 921.918 910.419C924.12 910.419 924.336 910.879 924.336 915.561C924.336 922.344 922.631 923.981 915.568 923.981C912.548 923.981 909.767 924.292 909.388 924.672C909.008 925.053 911.007 926.919 913.83 928.82C916.654 930.721 919.289 933.344 919.686 934.649C920.682 937.917 923.273 940.673 925.346 940.673C927.373 940.673 931.56 936.452 934.657 931.284C936.435 928.32 936.847 925.914 936.85 918.504L936.854 909.376H945.648C952.25 909.376 954.849 908.968 956.08 907.737C958.23 905.586 958.149 904.642 955.605 902.272C952.31 899.203 945.647 897.333 942.843 898.693C938.866 900.62 934.817 901.131 932.66 899.976C931.525 899.368 930.595 898.487 930.595 898.018C930.595 896.474 942.627 887.678 945.244 887.309C947.258 887.024 947.876 886.246 948.126 883.678C948.412 880.736 947.993 880.192 943.954 878.268C937.453 875.171 931.638 874.259 931.638 876.337C931.638 878.736 930.314 879.234 918.731 881.185C911.353 882.429 907.113 882.678 904.677 882.012C902.759 881.487 900.935 881.312 900.624 881.622C899.464 882.783 903.644 887.514 907.618 889.542C912.54 892.053 914.536 892.143 919.481 890.077C921.54 889.216 923.737 888.512 924.361 888.512C926.521 888.512 921.76 894.855 919.13 895.479C914.918 896.482 914.667 896.947 917.004 899.434L919.218 901.791L915.257 902.423C913.078 902.772 907.892 903.372 903.732 903.757L896.169 904.46V901.661C896.169 900.121 895.287 897.119 894.21 894.99L892.252 891.12L898.755 881.776C903.445 875.039 906.101 872.186 908.278 871.546C909.937 871.059 919.98 870.335 930.595 869.936L949.895 869.212L950.195 866.604C950.441 864.471 949.507 863.351 945.058 860.446C940.021 857.156 939.384 856.992 936.412 858.218C933.715 859.33 916.53 862.271 912.007 862.394C911.057 862.42 911.299 861.495 912.789 859.402C916.091 854.764 915.509 852.654 909.47 847.363C904.934 843.39 903.357 842.602 900.289 842.779C898.25 842.897 896.025 843.18 895.344 843.407ZM1006.93 843.327C1005.9 843.739 1006.13 844.488 1007.83 846.301L1010.11 848.724L1005.63 856.827C998.779 869.244 982.272 887.842 969.873 897.118L964.645 901.031L969.266 900.985C976.744 900.911 980.034 899.365 993.32 889.683C995.06 888.415 995.813 888.6 999.717 891.245C1003.24 893.636 1005.2 894.218 1009.36 894.115C1015.74 893.954 1031.82 890.775 1033.61 889.318C1039.12 884.834 1027.38 877.478 1020.56 881.138C1017.89 882.569 1005.27 885.382 1001.51 885.382H998.271L1005.01 877.819C1008.72 873.66 1013.09 868.748 1014.73 866.905L1017.7 863.554L1026.57 873.548C1041.65 890.541 1050.94 899.637 1053.69 900.112C1058.02 900.857 1071.76 899.546 1072.15 898.349C1072.52 897.243 1061.57 888.282 1048.49 878.988C1044.76 876.333 1037.81 870.78 1033.06 866.648C1024.67 859.353 1024.44 859.033 1025.11 855.482C1025.73 852.17 1025.37 851.393 1021.27 847.218C1017.35 843.221 1016.19 842.621 1012.53 842.693C1010.21 842.738 1007.69 843.023 1006.93 843.327ZM825.752 845.578C824.773 846.555 807.472 849.439 795.237 850.665C789.14 851.276 788.034 853.243 791.847 856.694C793.557 858.241 793.933 859.907 793.933 865.915C793.933 878.596 799.409 886.213 806.433 883.304C808.202 882.571 809.927 882.25 810.267 882.591C810.943 883.267 811.125 888.365 810.495 888.982C809.965 889.503 786.659 893.728 784.32 893.728C782.966 893.728 782.458 892.913 782.458 890.739C782.458 889.095 781.519 886.557 780.372 885.097C779.224 883.639 778.285 881.965 778.285 881.376C778.285 880.789 780.632 875.406 783.501 869.414C786.37 863.422 788.717 857.79 788.717 856.899C788.717 855.219 777.07 845.74 775.004 845.74C774.36 845.74 771.955 846.302 769.66 846.991L765.486 848.24L769.5 851.611L773.515 854.981L769.424 867.313C767.174 874.096 761.956 886.452 757.829 894.771C753.702 903.091 750.519 910.099 750.757 910.345C751.553 911.173 758.184 907.471 762.173 903.974C764.347 902.069 767.452 898.678 769.076 896.44C772.573 891.618 772.521 891.253 770.934 909.718C770.334 916.703 769.306 923.49 768.651 924.801C766.514 929.083 770.74 937.452 775.828 939.014C779.545 940.154 781.415 937.211 781.415 930.221V924.09L784.571 925.19C789.399 926.873 793.941 925.483 802.202 919.792C806.353 916.932 809.971 914.592 810.242 914.592C810.512 914.592 810.645 918.004 810.534 922.172C810.376 928.14 810.809 930.685 812.568 934.134C815.695 940.262 818.003 941.287 821.457 938.087C824.122 935.616 824.187 935.245 824.187 922.467C824.187 915.266 824.538 909.388 824.969 909.401C825.4 909.415 827.857 912.514 830.429 916.289C833.002 920.063 836.609 924.469 838.446 926.081C841.532 928.793 842.277 928.973 848.373 928.498C859.735 927.614 859.828 927.356 851.607 919.656C835.689 904.748 829.403 898.495 829.403 897.576C829.403 896.957 832.388 896.84 837.158 897.273C846.435 898.114 849.956 897.395 850.884 894.473C851.425 892.765 850.591 891.444 847.009 888.348C841.967 883.991 840.243 883.66 834.097 885.874C827.663 888.192 824.365 887.842 820.476 884.427C816.254 880.719 817.148 880.166 827.365 880.166C833.478 880.166 834.712 879.856 835.662 878.08C836.39 876.719 836.432 875.346 835.784 874.134C835.029 872.724 835.612 870.97 838.202 866.862C840.079 863.885 842.688 860.58 844.001 859.518C846.203 857.734 846.275 857.356 844.936 854.596C842.365 849.293 828.54 842.795 825.752 845.578ZM184.15 847.696C183.589 848.231 176.557 849.203 168.524 849.858C160.491 850.511 149.459 851.767 144.008 852.647C137.857 853.641 131.693 853.996 127.758 853.582C122.704 853.051 121.145 853.245 120.067 854.544C118.936 855.906 118.993 856.172 120.408 856.172C121.339 856.172 122.959 857.031 124.009 858.08C125.84 859.912 126.746 864.078 129.334 882.576C130.683 892.225 132.989 895.898 138.831 897.712C141.391 898.508 146.068 899.239 149.224 899.337C154.883 899.513 154.966 899.562 155.288 902.881C155.469 904.732 155.469 906.278 155.288 906.317C155.109 906.355 149.633 907.028 143.121 907.812C136.609 908.596 130.982 909.536 130.618 909.9C129.468 911.051 134.952 914.449 139.88 915.639C142.486 916.268 147.181 916.642 150.312 916.47C155.772 916.17 156.018 916.269 156.322 918.892C156.506 920.479 156.046 921.856 155.227 922.17C154.45 922.469 145.301 923.545 134.897 924.561L115.981 926.411L120.345 929.887C122.745 931.799 126.754 934.153 129.254 935.117C133.598 936.791 134.249 936.77 143.859 934.643C166.88 929.548 180.941 929.257 194.257 933.602C200.034 935.487 201.673 935.66 203.936 934.629C209.78 931.967 208.642 926.889 201.122 922.079C196.983 919.43 195.08 918.786 193.067 919.354C190.448 920.092 165.916 921.083 165.916 920.451C165.916 920.268 166.41 918.7 167.015 916.965C168.102 913.849 168.234 913.801 177.622 913.066C189.102 912.168 191.996 911.208 191.996 908.301C191.996 906.715 190.666 905.54 187.066 903.948C182.767 902.047 181.562 901.92 177.661 902.964C170.132 904.977 169.045 904.67 169.045 900.529C169.045 896.022 171.274 895.25 181.405 896.248C187.845 896.884 188.609 896.743 190.659 894.552C193.424 891.594 197.835 878.566 198.821 870.442C199.296 866.527 200.383 863.378 201.881 861.575C203.159 860.038 203.996 858.181 203.742 857.45C203.046 855.446 191.918 848.202 188.323 847.413C186.59 847.034 184.712 847.161 184.15 847.696ZM609.471 853.948C608.409 854.621 608.768 855.539 611.036 857.949C612.654 859.669 615.57 862.79 617.515 864.884C622.898 870.677 629.105 869.832 629.105 863.307C629.105 859.998 625.702 856.361 621.823 855.524C620.377 855.211 617.833 854.526 616.17 853.999C612.473 852.83 611.249 852.82 609.471 853.948ZM812.847 855.715C808.618 856.486 804.988 857.288 804.78 857.497C804.571 857.705 804.863 859.484 805.427 861.451C805.991 863.417 806.459 866.203 806.468 867.64C806.498 872.511 807.507 873.001 815.244 871.905C819.138 871.354 822.46 870.757 822.628 870.579C822.796 870.402 823.272 866.618 823.683 862.171C824.546 852.86 825.47 853.411 812.847 855.715ZM169.732 858.146L165.723 858.78L168.311 861.199C169.867 862.656 170.702 864.372 170.405 865.509C169.989 867.097 170.583 867.409 174.117 867.458C176.431 867.489 179.229 867.999 180.335 868.592C182.117 869.545 182.418 869.227 182.986 865.789C184.353 857.522 184.189 857.2 178.695 857.363C175.969 857.445 171.936 857.796 169.732 858.146ZM146.095 861.297L140.357 861.91L140.679 865.561C141.319 872.81 141.624 873.145 146.884 872.357C154.272 871.249 156.529 870.09 156.512 867.413C156.487 863.125 155.285 860.341 153.536 860.515C152.599 860.609 149.25 860.96 146.095 861.297ZM574.336 862.471C570.893 863.505 565.862 864.389 563.154 864.434C556.142 864.553 557.532 866.754 567.144 870.756L574.901 873.985L579.706 871.86C582.349 870.691 585.099 869.734 585.817 869.734C586.533 869.734 587.749 868.977 588.516 868.051C589.722 866.599 589.453 865.959 586.542 863.357C582.707 859.931 582.78 859.936 574.336 862.471ZM673.77 876.584C670.718 880.349 667.635 883.005 664.123 884.896C660.556 886.817 660.311 886.822 657.275 885.029C654.825 883.582 654.034 883.472 653.712 884.536C653.485 885.288 653.057 886.664 652.762 887.593C652.031 889.897 655.657 895.598 658.752 897.009C660.86 897.97 661.841 897.761 664.664 895.751L668.048 893.341L667.317 895.881C666.914 897.279 666.304 900.86 665.961 903.84C665.378 908.91 665.55 909.469 668.642 912.56C672.527 916.446 672.229 918.977 667.664 920.868C664.562 922.154 655.355 921.855 651.795 920.355C650.38 919.758 649.969 920.095 649.969 921.852C649.969 925.275 651.642 927.729 655.674 930.22C659.137 932.36 659.805 932.414 669.169 931.296C680.811 929.906 686.626 930.708 703.606 936.048C716.158 939.996 721.658 940.407 730.638 938.068C738.092 936.127 750.395 930.977 750.851 929.608C751.05 929.01 744.609 928.033 735.267 927.247C726.509 926.509 714.649 925.28 708.911 924.515C703.173 923.752 695.26 922.807 691.323 922.415C686.085 921.895 684.479 921.394 685.325 920.548C687.706 918.167 686.494 914.624 681.787 910.194C678.621 907.216 677.095 904.919 677.099 903.143C677.11 898.444 679.289 892.483 681.872 890.09C685.492 886.735 685.018 884.304 679.769 879.301C675.621 875.348 675.001 875.067 673.77 876.584ZM174.783 878.448C169.955 879.569 169.567 879.892 169.567 882.781C169.567 885.851 169.669 885.909 175.565 886.217L181.564 886.53V881.783C181.564 879.172 181.212 877.081 180.782 877.137C180.351 877.192 177.652 877.781 174.783 878.448ZM141.933 881.348C141.939 882.133 142.241 884.564 142.602 886.753L143.259 890.732L147.546 890.067C154.865 888.932 155.484 888.573 155.484 885.454C155.484 882.819 155.055 882.474 151.05 881.886C148.612 881.53 145.56 880.942 144.269 880.58C142.657 880.129 141.925 880.37 141.933 881.348ZM711.519 882.356C709.511 882.869 706.177 883.345 704.111 883.414C700.606 883.53 700.428 883.693 701.451 885.863C702.431 887.938 702.919 888.075 705.991 887.132C708.399 886.393 710.592 886.431 713.292 887.26C715.415 887.911 717.295 888.3 717.472 888.123C718.038 887.556 716.499 881.205 715.822 881.316C715.464 881.375 713.527 881.843 711.519 882.356ZM587.019 885.988C583.668 886.8 580.484 887.737 579.943 888.071C579.403 888.406 580.33 890.238 582.005 892.145C583.679 894.052 585.262 896.244 585.521 897.017C585.915 898.188 586.285 898.183 587.738 896.983C588.883 896.038 590.916 895.734 593.646 896.1C595.935 896.408 597.808 896.424 597.808 896.137C597.808 894.356 594.404 884.355 593.822 884.426C593.433 884.474 590.371 885.177 587.019 885.988ZM53.2481 891.713C47.7973 892.804 41.8937 893.794 40.1296 893.913C37.3859 894.098 36.9895 894.477 37.3828 896.537C37.6926 898.155 38.5721 898.944 40.0691 898.943C43.614 898.94 59.378 895.996 63.1524 894.631C65.8731 893.648 67.2825 893.671 69.8665 894.741C73.7473 896.348 74.5944 895.789 73.6962 892.212C73.0953 889.816 72.5455 889.563 68.0941 889.643C65.3797 889.692 58.6989 890.623 53.2481 891.713ZM712.602 894.51C710.042 895.801 706.639 896.858 705.039 896.858C703.148 896.858 702.13 897.405 702.13 898.422C702.13 900.304 703.24 900.388 706.785 898.772C708.754 897.876 710.424 897.855 713.157 898.694C717.268 899.956 718.219 899.079 717.596 894.598L717.257 892.163L712.602 894.51ZM782.458 900.348C782.458 902.269 782.149 908.193 781.772 913.514L781.084 923.188L783.503 921.894C786.206 920.447 804.366 903.223 804.366 902.106C804.366 901.714 801.122 901.428 797.158 901.472C791.243 901.537 789.38 901.132 786.769 899.205C785.018 897.914 783.332 896.858 783.021 896.858C782.712 896.858 782.458 898.429 782.458 900.348ZM1033.87 897.837C1033.87 898.926 1033.02 899.054 1005.71 901.994C995.092 903.138 984.999 903.801 983.278 903.47C980.25 902.885 980.335 903.059 985.886 908.783L991.623 914.699L996.75 914.003L1001.88 913.306L999.536 916.297C998.25 917.941 995.322 920.553 993.031 922.101C989.652 924.383 988.372 924.728 986.263 923.927C982.573 922.523 982.514 922.571 983.298 926.329C984.373 931.49 986.668 934.399 991.304 936.475C995.481 938.344 995.558 938.339 1000.35 935.858C1005.77 933.056 1016.15 930.683 1027.09 929.745L1034.4 929.119L1037.71 933.712C1041.45 938.89 1044.57 940.256 1047.04 937.793C1049.14 935.695 1048.24 929.091 1045.31 924.967C1042.93 921.63 1034.95 914.784 1029.81 911.671L1026.27 909.528L1030.14 908.802C1032.26 908.403 1036.2 908.324 1038.89 908.627C1049.5 909.823 1050.35 903.368 1040.29 897.985C1037.7 896.598 1033.87 896.509 1033.87 897.837ZM276.383 902.075C273.458 903.785 250.13 908.323 244.236 908.328L238.577 908.333L241.107 911.044C245.499 915.753 252.905 918.893 257.783 918.112L262.035 917.432L261.703 921.489C261.419 924.945 260.984 925.586 258.762 925.811C257.328 925.957 251.225 926.766 245.2 927.608C239.176 928.449 231.989 929.42 229.229 929.763C226.06 930.157 224.356 930.84 224.604 931.618C224.82 932.295 228.579 934.684 232.956 936.926L240.916 941.003L248.014 938.596C254.146 936.515 257.735 936.128 274.41 935.748C290.713 935.375 295.214 935.623 303.4 937.342C312.43 939.237 313.236 939.259 315.217 937.655C318.583 934.929 316.91 931.007 310.564 926.753L305.185 923.147L290.821 923.701L276.457 924.255L276.738 919.477C277.01 914.846 277.138 914.677 280.887 914.039C283.014 913.677 285.69 913.677 286.833 914.04C289.622 914.925 295.275 911.893 295.275 909.511C295.275 906.923 292.397 904.524 287.007 902.622C281.88 900.814 278.812 900.656 276.383 902.075ZM66.8099 904.85C64.8017 905.046 58.3369 905.958 52.4438 906.877C46.5496 907.796 40.5646 908.256 39.1427 907.899C36.7433 907.297 36.5566 907.526 36.5566 911.069V914.89L43.0767 914.229C46.6633 913.865 53.2627 912.786 57.7433 911.83C65.3306 910.211 66.137 910.21 69.5139 911.821C74.1062 914.01 74.1156 914.008 74.0978 911.202C74.0749 907.398 72.9148 904.148 71.6431 904.327C70.9932 904.419 68.8181 904.654 66.8099 904.85ZM478.36 907.29C476.638 907.728 473.419 908.142 471.206 908.21C468.024 908.307 467.313 908.672 467.806 909.954C468.148 910.846 468.927 914.706 469.538 918.532C470.15 922.356 470.809 925.645 471.003 925.84C471.198 926.034 476.546 925.865 482.888 925.464L494.419 924.735L495.501 919.687C496.097 916.911 496.885 912.752 497.255 910.443L497.926 906.247L489.708 906.37C485.188 906.438 480.081 906.852 478.36 907.29ZM712.041 907.369C710.319 907.887 707.386 908.03 705.521 907.684C702.407 907.108 702.13 907.278 702.13 909.762C702.13 912.372 702.302 912.446 707.085 911.897C715.64 910.915 716.735 910.508 716.735 908.313C716.735 906.039 716.566 906.006 712.041 907.369ZM1012.05 916.45C1006.6 921.983 1005.84 923.13 1008 922.589C1009.46 922.221 1014.36 921.384 1018.88 920.726C1023.39 920.068 1027.23 919.417 1027.4 919.28C1027.87 918.888 1023.15 911.035 1021.92 910.174C1019.99 908.814 1018.86 909.531 1012.05 916.45ZM57.9426 921.995C45.2028 923.832 42.3058 923.878 38.2184 922.309C36.88 921.796 36.5566 922.433 36.5566 925.58V929.489L42.0335 928.771C54.0941 927.19 67.5151 925.88 70.722 925.971C73.8151 926.058 74.1125 925.791 74.1125 922.937C74.1125 921.068 73.5877 919.855 72.8084 919.924C72.0917 919.988 65.4016 920.919 57.9426 921.995Z" fill="#060606"/>
</g>
<defs>
<clipPath id="clip0_77_3">
<rect width="1080" height="1080" fill="white"/>
</clipPath>
</defs>
</svg>
