<svg width="142" height="380" viewBox="0 0 142 380" fill="none" xmlns="http://www.w3.org/2000/svg">
<path fill-rule="evenodd" clip-rule="evenodd" d="M53.0666 16.8162C49.6134 21.8655 49.6919 24.6688 53.338 26.5423C57.5091 28.6865 59.4062 35.054 59.4062 46.9076C59.4062 53.4164 59.0075 56.7919 58.1634 57.4292C57.0338 58.281 47.6158 60.6861 45.4105 60.6861C44.9054 60.6861 44.4917 59.6416 44.4917 58.364C44.4917 55.8067 39.2965 48.0726 36.9868 47.1912C36.1844 46.8859 34.4125 47.3612 33.0493 48.2485C31.195 49.456 30.5715 50.7267 30.5715 53.2979C30.5715 55.6111 30.1092 56.7336 29.1566 56.7336C27.0994 56.7336 21.7958 61.44 20.031 64.8313C18.6628 67.4617 18.6658 67.9893 20.0668 70.1138C20.9228 71.4122 22.471 72.925 23.507 73.4764C24.5431 74.0268 25.8963 75.9201 26.5148 77.6829C29.6588 86.6442 36.764 88.8468 43.3771 82.9101L47.239 79.4418L52.3278 83.9891C55.1278 86.4901 57.4176 89.1165 57.4176 89.826C57.4176 91.6847 46.2387 101.216 29.0801 113.989C20.8771 120.094 13.9926 125.568 13.7798 126.152C12.9953 128.314 17.0729 129.855 23.5528 129.845C31.1035 129.834 37.9751 127.133 44.1338 121.753C46.2447 119.91 49.3141 117.569 50.9547 116.552C54.9935 114.047 69.9945 101.305 74.4371 96.6046C76.4147 94.5127 80.5431 89.0207 83.6115 84.4012C86.6789 79.7817 90.3598 74.6681 91.7916 73.0377C93.2224 71.4073 95.0002 68.9162 95.741 67.5022C96.4817 66.0892 98.2734 64.1603 99.7221 63.2167C102.293 61.5418 102.499 61.5774 108.473 64.693C111.838 66.4479 115.334 68.521 116.242 69.2996C117.15 70.0783 119.164 70.5713 120.717 70.3944C123.237 70.1079 123.567 69.6514 123.809 66.1208C124.176 60.7661 121.469 56.7029 114.645 52.3641C110.572 49.7752 109.121 48.2574 109.121 46.5835C109.121 45.1468 107.147 42.3771 103.739 39.0322C99.1892 34.5669 97.9582 33.8485 95.7847 34.391C94.3698 34.7438 93.2125 35.6914 93.2125 36.4957C93.2125 37.301 92.4866 37.9591 91.5997 37.9591C90.1599 37.9591 90.143 38.1923 91.4426 40.138C92.5343 41.7713 92.6716 43.2002 91.9934 45.8572C91.1622 49.1121 90.67 49.4955 85.9073 50.5953C83.0577 51.2544 79.683 51.7929 78.4083 51.7929C76.3084 51.7929 76.1483 51.4698 76.6981 48.3345C77.0312 46.4323 77.5771 43.3158 77.9102 41.4087C78.2443 39.5016 78.9154 37.6963 79.4016 37.3979C81.1675 36.3139 80.0877 30.4088 76.9904 24.2054C73.2628 16.7391 69.9548 14.4832 61.4406 13.5988L55.6756 13L53.0666 16.8162ZM81.4757 56.4717C79.1212 56.6812 76.9735 57.4253 76.7031 58.1258C76.4326 58.8264 76.3451 62.4687 76.5092 66.2186L76.8065 73.0377L79.3748 69.0852C84.1723 61.6999 87.4385 55.7445 86.5954 55.9184C86.133 56.0132 83.8292 56.2622 81.4757 56.4717ZM53.9605 67.7077C51.9311 69.9399 50.6484 72.1286 51.1098 72.5723C51.5712 73.015 53.6274 73.6839 55.6776 74.0584L59.4062 74.7402V69.1949C59.4062 66.1455 59.0105 63.6505 58.5273 63.6505C58.044 63.6505 55.9888 65.4765 53.9605 67.7077ZM71.7644 138.222C70.2242 140.558 70.271 140.757 72.884 142.991C75.3379 145.088 75.6849 146.205 76.3511 154.139C76.8711 160.336 76.7538 163.282 75.9544 164.05C73.7629 166.156 63.3834 171.492 63.3834 170.512C63.3834 168.208 60.0814 166.416 55.8367 166.416C51.5165 166.416 51.429 166.353 52.0673 163.698C52.4273 162.204 53.1064 160.232 53.5777 159.317C55.4847 155.612 54.5272 151.879 50.8443 148.666C45.7456 144.217 42.7915 143.274 39.8832 145.167C37.0395 147.019 37.0534 146.669 39.6336 151.588C41.4382 155.029 41.6351 156.536 41.0266 162.241C40.6378 165.896 39.8533 169.451 39.2836 170.142C38.7139 170.833 34.0426 174.359 28.9031 177.981C23.2038 181.996 19.67 185.137 19.845 186.034C20.2338 188.032 28.5551 192.21 31.2666 191.768C33.3516 191.429 33.3864 191.539 32.0282 194.151C30.1649 197.732 21.2559 209.44 17.0093 213.888C13.224 217.854 12.5628 222.432 15.4085 224.977C18.2084 227.482 22.6072 224.897 31.7557 215.368C36.2102 210.728 39.9677 207.044 40.1039 207.18C40.2411 207.316 39.8096 210.612 39.1444 214.503C38.0676 220.803 38.1401 222.21 39.8056 227.346C42.0975 234.412 44.9829 237.76 48.4361 237.359C50.8921 237.074 50.9617 236.851 51.242 228.421L51.5294 219.776L55.434 217.797L59.3386 215.816L66.9669 220.96C74.2969 225.903 78.286 230.383 78.294 233.684C78.2999 236.153 82.7832 239.741 85.4002 239.371C89.8378 238.745 90.7357 234.772 90.6342 216.211L90.5418 199.308L97.7087 206.329C101.65 210.192 107.364 214.673 110.405 216.287C115.884 219.196 115.967 219.207 119.522 217.522C121.494 216.587 125.246 215.822 127.857 215.822C130.468 215.822 133.41 215.237 134.394 214.522C138.132 211.806 135.871 209.612 121.988 202.483C106.632 194.597 103.879 192.785 95.9617 185.339C91.2915 180.947 90.3668 179.556 90.85 177.644C91.204 176.241 90.9991 175.309 90.3369 175.309C89.7314 175.309 89.2353 174.715 89.2353 173.989C89.2353 173.263 91.9209 171.517 95.204 170.108C98.4872 168.701 101.47 166.78 101.833 165.841C102.804 163.324 98.8939 160.649 93.1309 159.889C87.4296 159.137 87.017 157.828 90.2514 150.745C92.8764 144.996 92.7799 144.439 88.7908 142.305C86.9066 141.296 84.3672 139.415 83.1491 138.127C80.0081 134.804 73.9847 134.854 71.7644 138.222ZM55.5951 179.364C54.9478 180.395 53.7258 181.238 52.8806 181.238C51.6676 181.238 51.4071 182.223 51.6457 185.9C51.9212 190.142 52.3248 190.813 56.1161 193.337C60.6591 196.362 62.4458 199.722 60.2584 201.124C59.5166 201.6 57.2317 202.268 55.1805 202.609C51.4936 203.223 51.4518 203.28 51.4846 207.797L51.5185 212.364L57.872 205.765C63.3655 200.059 71.3378 189.273 71.3378 187.547C71.3378 187.234 72.2675 185.679 73.404 184.093L75.4702 181.21L73.0262 182.317C71.128 183.176 69.3492 183.067 65.0549 181.827C62.0153 180.948 58.9081 179.613 58.1504 178.86C56.9762 177.693 56.5983 177.767 55.5951 179.364ZM74.9849 204.496C73.4368 206.431 70.1308 209.276 67.6381 210.817L63.106 213.62L65.6087 215.249C68.517 217.143 73.8315 218.787 77.0481 218.787C79.0725 218.787 79.2853 218.327 79.2187 214.093C79.1779 211.511 78.8428 207.504 78.4729 205.189L77.8008 200.978L74.9849 204.496ZM63.4998 252.738C62.6437 253.762 62.8565 254.682 64.3996 256.632C67.0325 259.96 68.3947 274.042 66.247 275.739C64.7357 276.934 50.7757 282.027 49.0108 282.027C48.4013 282.027 47.1296 280.725 46.184 279.135C45.2395 277.545 42.7935 275.239 40.7502 274.012C38.7069 272.785 35.7697 270.751 34.2236 269.492C30.3886 266.371 24.7231 266.397 21.7431 269.548L19.5288 271.891L23.3559 275.724C25.4618 277.831 27.9814 280.816 28.9548 282.357C31.021 285.622 36.0143 287.956 40.9351 287.956C43.0331 287.956 45.8937 288.967 48.1766 290.516C51.1814 292.555 52.7922 292.983 56.0932 292.623C61.7498 292.004 60.9544 293.467 52.122 299.937C48.1985 302.81 44.6399 305.625 44.2133 306.193C43.7858 306.76 43.7231 306.001 44.0721 304.507C44.4211 303.013 44.3953 301.789 44.0135 301.789C42.9536 301.789 39.5908 306.073 39.5531 307.471C39.5352 308.151 39.0728 308.706 38.5259 308.706C37.9791 308.706 37.5316 309.373 37.5316 310.189C37.5316 312.186 36.945 312.069 33.2392 309.339C29.9839 306.94 15.0803 302.778 9.74591 302.778C7.40632 302.778 6.61387 303.301 6.14555 305.156C5.81544 306.464 6.06601 308.503 6.70335 309.686C8.2823 312.617 23.2913 319.576 28.0371 319.576H31.7488L29.9173 322.478C25.2719 329.837 19.144 337.874 14.6289 342.53C11.9135 345.329 9.69123 348.038 9.69123 348.548C9.69123 349.353 11.4492 351.6 18.1408 359.348C19.0287 360.377 21.0302 361.077 23.0795 361.077C26.7693 361.077 28.1842 359.486 29.6488 353.69C34.668 333.829 41.7534 311.089 43.4636 309.351C44.2869 308.515 49.4603 315.183 49.4662 317.088C49.4672 317.641 50.6982 318.912 52.2005 319.912C54.5282 321.461 54.905 322.348 54.7519 325.919C54.4825 332.179 51.0014 340.972 47.0859 345.279C43.4368 349.292 40.8228 355.898 41.8399 358.533C43.051 361.671 47.4786 360.315 52.0852 355.395C57.1005 350.041 61.3551 341.862 64.8968 330.773L67.3437 323.111L64.3698 320.061C62.7332 318.384 61.3988 316.588 61.4028 316.07C61.4078 315.553 63.3089 314.087 65.6286 312.812C79.6393 305.115 88.7819 300.801 91.0807 300.802C92.5264 300.802 96.1248 301.714 99.0768 302.83C105.873 305.397 109.499 305.097 109.951 301.93C110.206 300.134 108.838 298.262 103.985 293.762C100.521 290.55 96.5682 287.685 95.2011 287.394C91.195 286.542 86.1708 283.753 86.5586 282.598C86.7555 282.012 88.2837 281.517 89.9541 281.498C93.9791 281.452 96.3694 279.359 95.9975 276.205C95.7628 274.219 94.7556 273.327 91.3213 272.071C86.9702 270.48 83.875 267.642 84.8245 266.115C85.8318 264.495 82.4004 258.536 79.156 256.268C77.3166 254.982 75.2206 253.36 74.4987 252.663C72.7527 250.979 64.9246 251.032 63.4998 252.738ZM76.0598 291.956C71.8628 295.998 71.8539 296.021 74.7632 295.381C79.3449 294.375 84.2637 292.109 84.2637 291.005C84.2637 290.453 83.3689 289.526 82.2742 288.944C80.5858 288.046 79.6462 288.501 76.0598 291.956ZM85.434 304.445C84.4487 304.836 84.6605 305.54 86.2762 307.25C88.1505 309.232 88.3603 310.289 87.8671 315.295C87.5559 318.465 87.01 327.587 86.655 335.569C85.9173 352.166 86.3667 353.577 94.7079 360.875C99.8315 365.357 104.687 367.008 112.717 367C120.419 366.993 125.897 365.431 129.256 362.283C132.954 358.816 132.696 356.611 128.262 353.787C122.275 349.973 118.445 345.299 114.6 337.115C111.151 329.772 108.574 327.002 109.545 331.68C109.798 332.904 110.28 337.514 110.615 341.928C111.12 348.579 110.947 350.228 109.604 351.562C106.403 354.744 98.6016 352.699 97.5138 348.392C97.1708 347.036 97.1678 338.615 97.5058 329.678C98.2237 310.701 97.4949 307.582 91.7886 305.212C88.1027 303.682 87.528 303.613 85.434 304.445ZM69.384 313.894C69.4039 314.574 70.0592 316.241 70.8407 317.599C72.5956 320.651 72.8094 334.573 71.1927 340.577C70.1487 344.461 70.2918 345.299 72.9327 350.721C74.979 354.919 76.4416 356.719 77.9857 356.938C81.2709 357.403 82.2632 352.169 82.2692 334.337C82.2752 320.088 82.122 318.797 80.1911 316.737C76.7946 313.114 69.3065 311.144 69.384 313.894Z" fill="#242324"/>
</svg>
